<svg viewBox="0 0 1080 1080" xmlns="http://www.w3.org/2000/svg">
  <polyline points="540,540 340,990 774,694 678,814 760,723 431,1038 658,852 748,688 704,331 787,572 685,349 729,445 779,452 726,561 774,458 665,589 682,565 704,561 719,463 709,745 404,993 411,1028 448,1010 656,808 598,871 431,869 529,805 449,819 518,819 434,792 324,369 388,717 382,839 370,786 329,829 347,883 409,632 403,738 314,366 416,829 500,859 465,876 551,798 527,909 425,659 397,687 331,356 331,456 331,455 414,706 371,767 341,816 416,699 403,617 349,881 330,861 548,799 567,846 416,982 414,640 456,674 424,756 361,531 317,451 458,747 432,894 418,897 476,889 412,919 428,847 324,380 320,500 347,520 315,475 325,503 399,155 607,148 755,496 647,201 726,326 759,432 737,708 875,778 964,958 861,726 936,889 574,154 528,150 617,161 503,196 493,103 494,134 488,117 572,143 596,111 599,126 428,119 582,83 541,123 535,82 581,145 427,141 512,128 555,105 619,194 767,425 662,284 792,527 647,617 781,730 487,861 712,732 457,891 620,780 646,741 468,902 361,1027 740,1079 588,1058 684,1078 649,877 672,891 532,958 638,906 533,955 585,949 481,1006 499,1020 593,912 474,1073 442,1031 500,993 677,1057 627,984 625,957 656,948 505,1058 629,891 590,914 687,1046 670,987 587,879 673,891 657,912 493,1062 600,1063 353,1055 524,906 662,783 657,889 600,1060 756,670 723,616 731,637 613,1007 629,915 610,960 701,1063 344,1020 388,1073 404,1041 365,1051 357,1059 409,1077 432,1047 314,1021 609,1068 631,978 625,956 661,819 630,868 553,928 626,869 688,793 643,862 540,937 305,1054 670,991 576,1059 291,1058 417,1077 381,1077 463,1046 502,1051 370,1032 539,1063 323,1037 435,926 464,1005 323,1067 389,1057 443,1052 555,1009 683,1040 666,936 647,999 589,935 547,987 329,860 399,779 403,797 390,982 289,1015 495,844 407,685 470,797 430,714 457,794 463,718 466,729 383,937 418,857 481,821 472,842 461,686 465,726 452,685 452,703 356,921 707,716 550,800 688,726 526,811 679,744 580,791 572,782 468,899 448,951 503,893 504,894 345,867 385,886 402,939 403,859 388,887 389,732 397,896 401,919 384,789 398,983 362,798 298,390 356,815 316,854 352,843 349,841 424,967 334,823 420,943 367,844 413,925 402,909 348,881 397,891 335,864 386,856 388,875 364,896 397,802 392,822 493,946 420,1018 307,898 442,1025 359,953 679,1063 400,973 467,897 342,1041 578,918 482,932 532,975 548,833 603,876 387,988 739,694 716,729 733,690 681,673 731,486 689,692 663,564 684,557 691,546 817,767 759,682 639,749 811,644 695,424 830,747 714,644 737,689 684,558 704,653 948,830 810,737 744,575 701,681 697,546 892,814 822,725 819,767 781,676 777,726 753,681 764,704 805,729 799,731 745,623 694,773 437,989 588,854 554,883 603,839 589,867 777,691 463,985 565,877 742,717 654,629 696,680 699,359 704,639 783,395 772,429 820,437 713,377 795,450 779,545 725,200 473,80 663,133 741,279 510,59 505,167 559,81 646,197 600,124 815,455 564,314 760,229 778,541 965,915 882,736 625,254 711,313 869,725 717,531 791,635 785,383 786,467 784,376 747,532 804,417 784,472 690,324 611,136 620,131 557,75 504,99 635,125 463,136 609,128 582,97 597,112 700,238 950,892 750,366 547,339 749,378 747,442 796,448 761,373 813,462 684,293 747,356 731,412 773,440 828,486 655,231 707,441 717,439 758,510 807,414 588,344 533,345 465,133 409,239 424,180 371,194 342,420 299,1069 311,803 351,665 344,648 271,916 335,1046 633,899 486,968 682,997 619,902 557,930 452,1009 825,696 640,852 652,963 689,810 753,743 465,986 627,994 479,988 418,1006 651,893 623,909 584,1033 490,1022 491,1043 513,1010 806,695 563,958 503,986 457,1019 602,918 593,921 592,992 499,965 414,1052 294,1055 327,993 269,923 409,694 294,824 340,901 318,874 357,626 270,911 268,936 329,701 334,719 314,1039 253,854 332,974 301,667 329,903 314,571 390,781 432,706 276,860 267,883 259,909 283,809 488,805 455,703 421,947 492,823 540,852 402,963 402,968 445,919 475,681 478,858 485,770 432,818 422,853 442,712 451,689 395,788 386,692 411,921 505,846 807,670 605,862 835,636 552,892 429,879 449,791 411,937 346,983 500,849 382,773 384,735 364,610 335,659 343,957 341,968 469,863 404,724 459,894 417,716 444,949 360,613 485,791 465,679 534,1048 526,1044 581,1030 569,1053 533,1017 384,594 481,729 401,824 449,849 389,587 485,954 300,402 392,236 650,84 463,117 508,260 476,226 519,307 617,353 592,358 512,213 573,182 584,204 474,162 496,158 498,217 612,362 634,356 573,355 526,205 522,304 496,111 521,311 534,283 509,124 385,188 434,169 405,205 367,247 350,408 356,228 413,184 420,136 413,199 328,322 333,336 345,360 348,415 282,429 447,105 285,432 422,165 416,119 315,440 413,176 437,151 352,294 438,140 627,221 667,315 585,174 481,254 538,351 490,148 635,167 741,341 675,595 683,495 656,1050 589,1030 710,1071 623,1032 666,1042 622,1054 575,1051 464,1040 309,979 371,1007 854,599 716,650 868,747 970,934 970,1009 873,735 579,191 636,371 600,232 595,248 624,319 516,97 628,343 580,97 618,115 402,138 573,98 776,545 744,538 857,765 777,592 690,530 686,674 662,603 673,693 691,565 695,521 690,713 673,1007 678,903 647,1057 650,1004 530,1021 715,793 526,1077 620,1043 648,1017 550,1006 667,1024 537,1004 672,989 581,981 526,960 460,1048 523,958 679,1057 586,916 699,1079 572,968 599,995 606,781 509,875 710,778 500,1077 610,1062 650,956 454,1027 632,1036 591,956 637,1075 492,1067 508,1075 350,1059 274,871 322,979 352,1077 321,992 503,1067 263,808 473,1019 338,661 291,714 295,826 338,571 425,654 472,706 478,734 478,705 450,938 307,374 321,452 314,370 322,682 348,251 352,662 365,879 321,488 327,495 362,746 340,489 377,743 386,916 291,847 474,994 482,1014 283,825 363,923 261,762 424,996 617,802 548,864 552,871 679,763 802,435 725,595 778,553 695,627 772,567 701,478 750,632 745,589 734,588 948,822 951,981 959,950 839,569 879,700 981,953 801,493 832,523 894,733 822,521 863,659 856,564 792,565 938,832 932,791 963,980 843,689 799,683 697,437 659,634 737,465 716,506 741,512 694,645 705,693 716,283 519,115 569,323 485,219 572,347 609,352 689,380 668,321 643,277 519,84 508,87 427,133 360,256 435,110 589,76 704,219 771,331 737,278 672,270 778,304 607,71 735,257 748,312 745,275 606,81 521,66 562,82 608,71 646,155 729,397 776,463 782,542 805,558 812,562 851,661 701,320 686,241 706,370 685,545 697,247 670,222 848,746 632,155 482,144 506,317 565,306 509,234 477,196 598,162 500,187 506,72 479,131 565,355 537,285 518,275 493,260 493,140 418,160 397,167 307,358 327,368 366,563 393,686 353,783 384,689 298,1077 392,1074 284,1075 390,1068 435,1045 634,937 700,806 478,1025 628,850 700,1074 660,990 571,874 430,1024 357,973 400,1033 538,1054 693,1064 622,1076 644,1054 705,1072 378,1065 585,1051 442,1033 433,1067 656,929 631,998 654,935 588,934 671,917 673,815 495,821 666,733 396,880 368,810 391,782 293,1012 460,1026 245,822 391,968 371,974 348,797 294,414 387,166 520,163 533,157 717,177 705,167 683,166 749,211 736,214 921,787 875,646 741,259 785,342 696,325 696,487 793,754 756,670 383,985 393,1017 324,928 331,987 296,903 261,906 308,915 398,1005 677,758 329,1045 833,632 716,389 651,613 696,480 808,405 811,738 855,781 802,659 774,613 625,820 393,993 774,634 754,668 596,831 464,928 877,600 321,1038 445,980 426,908 363,898 286,1062 298,1021 285,974 305,979 248,860 359,581 374,659 298,838 296,1009 305,701 282,781 306,756 287,832 311,705 405,961 304,1072 323,1045 265,770 417,871 639,777 643,760 685,1034 471,777 549,876 337,1060 316,1018 369,951 531,814 825,736 770,262 799,384 799,418 667,624 664,626 649,594 669,630 764,517 731,588 734,680 681,688 698,611 742,613 640,616 684,689 772,660 705,626 775,663 653,642 656,618 700,651 857,784 685,647 682,469 979,916 853,566 742,195 730,202 766,276 754,261 838,518 585,237 624,171 591,212 617,198 746,539 720,419 760,760 809,365 678,633 712,602 662,565 955,834 935,793 990,901 983,918 688,201 623,166 800,482 693,140 584,106 600,107 631,341 619,265 591,129 607,150 640,386 634,94 635,259 576,61 699,156 605,186 635,200 411,204 580,191 679,368 567,357 520,229 498,92 460,107 411,341 416,337 389,338 441,344 444,156 457,97 423,248 472,111 574,95 383,359 631,101 657,119 589,85 661,129 441,203 430,264 467,146 416,261 498,61 430,258 446,208 395,140 340,269 357,214 491,136 689,150 594,172 427,231 421,199 428,198 436,219 515,64 468,108 417,264 444,204 414,335 455,212 455,89 454,112 287,480 486,715 403,625 506,990 676,1023 416,681 414,631 561,961 598,963 414,1010 647,1062 737,1077 605,1056 572,1005 614,1006 676,1026 660,742 820,753 816,714 838,755 770,740 847,737 666,183 705,295 638,190 731,170 706,149 616,75 551,98 758,217 657,238 831,501 777,544 893,785 687,169 784,399 723,208 751,265 750,422 866,674 783,480 743,570 733,577 798,724 742,574 765,522 641,1023 522,1010 375,1033 647,792 470,1022 483,1000 625,1053 401,1004 353,1078 665,1062 483,1024 670,1017 673,880 559,785 354,892 334,834 333,793 337,1073 569,867 643,839 639,917 667,995 596,785 527,799 503,848 289,399 402,165 463,79 545,234 757,276 683,146 717,155 724,383 649,224 599,366 505,270 551,324 703,364 531,75 548,294 515,283 493,260 626,356 574,232 587,200 557,124 662,343 610,338 653,319 605,344 479,246 516,265 488,282 776,431 985,886 831,758 885,789 995,1019 780,597 797,702 878,770 997,1060 883,751 864,660 731,755 622,848 599,1030 650,793 557,925 571,876 665,812 565,928 564,901 649,888 497,904 656,979 596,856 678,800 751,743 779,705 435,995 879,616 541,972 532,974 747,700 277,966 473,791 479,812 701,1073 250,1077 639,1030 320,810 331,739 297,614 468,825 396,683 328,299 324,319 470,967 515,932 563,974 314,731 273,890 346,322 277,810 514,830 513,844 485,858 572,796 624,761 582,808 337,809 357,646 348,697 336,795 349,824 467,815 430,678 434,726 333,923 376,995 351,436 385,677 471,725 384,954 247,877 456,670 289,972 319,612 285,703 356,569 339,560 356,824 389,669 352,467 351,443 363,207 267,903 276,769 274,763 369,326 258,836 350,447 412,706 364,822 383,868 442,761 356,833 342,850 307,573 345,369 327,447 328,313 314,497 299,1001 317,449 323,690 339,709 372,730 350,568 283,908 280,989 443,882 318,973 259,896 275,811 365,1028 479,914 767,645 716,608 747,544 697,478 747,313 662,610 786,651 754,673 687,620 654,674 715,528 698,558 702,638 827,712 927,847 935,856 894,813 940,931 910,726 961,840 803,747 672,522 682,646 697,693 637,618 724,552 728,677 762,606 826,751 797,693 968,899 943,845 513,86 564,182 522,167 506,110 557,278 467,78 634,89 520,86 504,309 591,359 482,73 467,100 551,357 535,218 493,275 674,116 680,184 804,542 840,625 971,913 948,810 950,828 974,929 658,258 577,66 690,264 532,76 620,120 870,571 318,1011 415,996 599,903 816,668 582,961 705,787 753,755 510,931 403,639 315,732 312,756 328,800 329,888 349,466 301,1015 438,733 345,1076 535,1059 698,1037 484,1019 812,675 448,1061 675,1076 441,1075 460,1061 738,1072 350,1040 438,823 348,679 438,946 362,648 447,1013 654,1027 403,1013 380,991 451,1064 458,1045 327,1035 283,968 605,786 400,902 432,933 539,834 322,1021 607,766 271,1058 593,1065 646,912 661,854 268,968 758,685 378,960 521,851 370,986 434,899 280,1042 609,1060 366,623 408,730 326,1028 385,964 317,451 419,828 394,727 442,668 457,777 452,820 445,873 431,823 337,530 383,716 405,687 388,704 412,692 478,866 836,675 800,598 755,596 775,631 766,544 511,97 629,363 691,385 573,340 592,330 727,322 666,320 600,344 602,260 636,339 598,275 596,299 635,261 694,386 514,320 574,335 449,147 343,335 454,130 287,428 352,343 501,50 822,650 717,510 779,388 1008,1043 839,556 814,499 676,521 736,549 708,500 704,647 667,570 633,625 829,771 680,660 767,309 781,408 724,276 696,211 518,144 580,223 365,195 336,258 373,177 338,275 348,266 356,305 391,339 324,350 306,452 317,981 677,943 675,792 680,962 278,1049 321,1038 311,783 315,990 368,942 325,616 306,853 359,759 274,913 289,927 266,817 252,799 294,1013 293,977 381,1016 601,1048 696,813 627,1061 646,957 662,890 541,1004 653,954 691,736 589,868 617,873 456,970 463,915 577,805 635,794 656,932 676,918 640,1042 583,1008 338,491 383,187 294,377 326,435 279,458 564,102 671,127 645,115 643,92 695,138 756,237 650,94 685,139 703,162 668,138 491,132 522,348 477,191 405,336 445,189 501,156 406,355 318,305 453,93 433,195 577,164 814,477 777,474 693,392 747,446 711,484 831,777 738,586 694,687 732,651 715,605 707,661 777,571 1005,1061 918,824 951,983 896,713 810,760 833,757 896,807 726,490 958,935 992,932 956,1009 1018,896 967,1014 956,881 762,306 683,293 724,376 848,742 1005,960 947,808 1006,954 627,257 751,483 976,1014 955,1030 968,857 962,824 955,814 935,757 939,897 894,753 814,581 569,63 613,340 721,329 608,124 567,116 698,328 967,1003 935,920 758,322 603,96 574,85 450,125 416,128 391,160 423,113 429,237 437,261 396,206 408,126 389,162 415,230 398,145 351,401 257,821 263,768 243,861 303,940 284,928 499,807 409,616 612,1048 367,551 434,669 518,828 339,497 484,752 464,676 503,859 605,778 726,745 789,645 680,771 407,844 277,900 301,932 279,740 473,675 430,669 370,813 346,921 470,849 830,625 794,319 748,299 792,543 865,558 819,523 815,476 830,596 758,235 773,296 844,522 843,517 803,416 787,301 682,207 685,156 567,77 517,86 596,68 503,122 572,92 721,325 505,64 543,328 507,83 471,114 517,80 407,352 373,306 362,249 456,135 605,367 457,172 560,328 579,353 484,138 516,141 565,98 671,104 742,207 722,174 757,225 751,239 585,84 688,121 769,378 717,176 503,92 403,385 483,98 546,68 473,110 571,318 507,161 720,207 633,137 611,81 602,75 536,70 471,115 432,305 413,340 338,313 339,344 285,484 347,445 307,928 470,763 465,703 475,979 654,971 508,966 367,1061 436,1000 460,1036 407,980 387,988 299,1042 440,1060 728,704 652,797 807,718 355,1068 350,1061 655,793 437,955 693,1052 676,1015 662,979 672,1053 383,943 367,652 336,985 325,884 302,345 378,193 371,194 499,103 596,154 656,324 669,341 599,316 560,142 528,347 510,267 560,330 556,222 519,116 769,567 645,604 711,528 689,524 722,520 700,460 661,654 665,664 685,470 665,622 693,516 657,591 702,582 762,357 736,396 743,411 378,209 503,64 473,141 485,269 730,415 706,489 717,427 610,313 583,134 545,230 540,363 553,232 534,197 530,119 634,351 510,83 543,255 575,326 849,513 835,509 750,238 656,590 765,673 801,658 841,758 877,736 954,932 603,181 989,994 857,714 765,739 803,423 621,154 519,64 509,176 378,168 331,306 434,346 370,337 311,499 326,294 391,249 368,322 419,192 426,243 489,212 448,119 381,176 401,173 464,88 398,213 567,84 862,697 761,744 827,742 711,738 720,482 718,651 689,819 633,956 564,984 560,1057 538,1078 279,1045 298,1054 574,827 843,602 526,868 767,669 281,1067 345,1029 339,589 317,951 346,508 445,924 338,411 325,331 356,266 293,775 348,506 464,971 365,556 447,873 398,699 351,470 334,380 491,75 367,351 387,343 431,350 326,337 422,146 396,202 378,266 406,184 443,95 587,76 555,135 663,146 751,393 961,886 795,351 854,534 739,211 664,185 683,205 700,236 570,66 634,79 729,243 752,243 726,370 729,347 853,631 451,1011 837,646 565,877 459,871 588,1037 404,1075 606,1017 652,826 382,1006 316,1011 288,813 303,746 285,748 292,981 344,1078 359,1066 343,1073 432,1063 427,1063 354,558 342,573 330,501 390,841 701,1045 302,793 295,782 337,863 277,752 303,983 272,927 297,1064 589,1072 651,808 652,758" fill="none" stroke="black" stroke-width="1.25"/>
</svg>
  