<svg viewBox="0 0 1080 1080" xmlns="http://www.w3.org/2000/svg">
  <polyline points="540,540 340,110 554,170 401,107 399,154 523,116 452,103 716,160 574,74 384,212 509,63 358,211 452,93 507,154 457,90 523,180 567,56 594,93 535,123 608,151 534,73 375,205 527,83 715,174 533,91 350,191 519,144 620,80 668,107 621,98 494,159 475,157 591,139 661,156 573,122 638,75 542,133 645,86 784,259 729,162 816,402 779,342 756,139 444,97 339,252 365,193 673,116 633,90 753,185 802,259 698,143 629,136 650,68 639,94 659,93 607,100 354,238 366,221 315,379 367,276 309,411 321,218 328,442 365,137 332,371 329,290 501,72 696,144 758,184 490,48 666,127 662,120 718,133 564,66 801,261 668,141 593,115 388,208 661,78 323,245 508,111 607,130 626,157 728,135 497,90 537,53 494,97 612,134 734,194 717,142 628,79 548,77 550,87 610,61 621,102 665,118 763,218 687,148 783,218 691,96 540,44 402,124 339,321 331,335 346,235 327,229 392,213 317,209 601,144 464,182 592,162 395,141 368,169 646,62 522,111 525,174 469,170 674,157 371,166 400,163 434,133 347,149 315,344 321,455 302,388 382,236 563,91 419,191 589,66 566,192 388,116 402,224 405,112 581,42 319,260 392,194 475,99 507,145 651,165 715,162 787,208 588,94 526,56 665,78 691,139 812,323 759,219 723,175 494,168 535,172 618,152 425,98 464,84 672,87 658,103 709,116 671,122 603,70 532,130 521,58 732,153 787,261 802,419 780,343 680,80 765,174 727,138 449,135 428,85 319,347 315,347 549,36 669,124 602,98 582,51 416,130 402,149 482,166 418,92 665,119 666,90 647,86 587,136 571,123 423,122 434,103 596,166 456,188 357,167 316,313 323,482 322,365 321,388 314,226 339,272 296,399 354,351 376,170 473,58 683,165 581,153 428,106 388,154 522,62 584,151 508,138 746,160 522,61 435,96 452,72 661,148 801,283 779,330 739,128 635,101 546,144 606,116 670,130 717,147 713,160 407,110 316,403 432,167 483,135 321,223 398,217 301,292 557,92 651,140 331,185 507,92 412,160 596,104 743,157 725,139 758,173 802,423 799,219 804,513 798,229 791,357 791,364 806,351 803,339 813,336 569,34 427,130 462,138 405,140 314,235 493,60 438,117 569,140 296,167 779,179 786,300 710,188 604,145 647,131 540,77 651,131 729,198 736,224 790,205 495,106 342,154 393,239 293,350 438,139 333,227 334,192 331,327 337,218 324,479 350,177 337,358 354,349 315,293 381,259 350,148 420,145 474,83 355,276 320,318 353,131 477,89 434,84 379,141 441,89 364,246 344,343 329,453 299,412 334,169 303,362 325,493 299,286 331,491 301,259 434,82 618,66 542,109 657,110 562,37 537,106 442,69 299,407 319,458 294,432 375,312 326,374 335,378 373,190 353,161 458,77 367,161 490,112 558,53 519,81 784,263 657,138 660,63 648,99 639,54 613,79 471,81 475,67 442,100 466,138 508,64 707,86 831,486 773,262 792,345 792,538 815,269 462,102 374,122 322,240 420,190 449,190 625,50 489,92 492,89 501,100 473,86 637,88 732,120 610,68 702,165 568,54 290,322 433,138 723,176 701,113 771,268 638,86 592,107 458,159 576,51 759,170 511,157 522,123 448,99 388,206 555,84 780,246 806,535 805,304 800,287 774,387 631,399 680,417 788,190 664,76 320,262 350,239 300,344 388,91 326,424 299,325 426,101 584,181 475,132 711,186 663,166 790,275 784,413 793,184 404,122 424,120 342,199 643,163 747,223 610,88 741,146 808,286 758,266 790,290 810,292 706,170 646,169 389,189 342,171 300,352 363,335 726,470 661,424 624,381 740,386 716,399 632,368 740,513 308,297 331,228 509,175 310,270 411,78 660,158 723,166 801,422 780,223 777,286 688,124 767,196 810,551 788,382 793,248 775,389 789,256 808,446 782,359 795,505 793,404 815,442 768,229 787,219 825,470 651,471 664,469 699,470 630,452 780,530 436,363 675,467 710,489 657,443 788,487 816,144 440,125 503,88 557,102 390,177 473,92 628,53 617,76 733,139 466,178 411,170 394,182 657,116 605,40 703,128 643,57 426,186 340,247 308,279 622,43 731,152 698,147 684,96 781,200 622,64 435,61 658,62 470,46 579,154 420,194 309,445 302,388 386,127 373,173 316,554 311,223 480,50 693,156 576,96 607,117 416,204 598,167 447,192 652,175 556,31 551,64 378,61 304,429 338,372 361,182 783,183 699,97 506,187 376,125 323,295 334,261 382,124 388,146 302,385 406,102 298,394 355,263 336,239 346,229 655,128 796,203 505,166 552,167 369,167 364,156 571,179 347,163 318,453 345,208 323,412 302,370 523,111 466,67 480,77 545,48 585,100 552,87 510,54 494,49 645,108 601,80 649,84 708,126 758,217 669,135 425,87 666,173 485,57 543,50 676,130 523,27 614,104 801,294 640,68 632,79 677,103 605,68 812,340 775,320 809,370 746,164 799,467 796,526 807,200 659,128 792,248 684,87 665,203 789,241 656,55 721,180 787,282 819,373 655,389 648,386 816,1068 802,958 893,1020 709,1056 984,961 603,1018 777,1073 853,1046 662,841 933,1038 685,1050 855,1008 813,1025 814,978 762,992 834,982 844,998 764,899 818,1066 761,1067 831,1019 698,1005 820,1027 757,1052 805,956 766,1060 846,1056 815,1049 835,1034 769,917 796,1046 755,1054 766,1078 723,1029 868,1058 735,1079 901,1058 687,1011 871,996 667,846 800,1055 871,1061 681,1072 869,1030 746,1054 856,1051 783,974 726,1019 885,978 692,919 805,1073 781,1064 711,1052 755,1072 776,1004 764,1016 838,1019 779,1066 825,1052 842,1030 741,1079 811,998 712,1077 819,1057 738,986 902,995 747,1041 839,1061 793,1059 775,1071 802,945 721,1067 763,1032 764,953 790,936 756,1068 793,948 783,1063 846,1015 760,1079 876,973 773,1061 836,1044 832,1018 840,1074 839,1060 825,1079 803,1073 755,1068 882,875 708,1051 764,1013 811,965 869,999 808,940 765,1016 881,982 763,972 882,986 794,956 780,927 802,929 733,1051 789,983 748,980 910,998 738,1015 846,985 840,959 814,1029 855,941 798,972 774,899 722,1077 790,1076 879,1066 775,953 766,949 938,980 233,1047 302,996 182,1050 463,1024 217,1002 315,969 245,1057 251,1019 219,988 269,983 242,911 313,979 158,1038 400,1052 242,1029 309,990 315,1065 290,1079 369,1024 222,1029 313,1003 252,882 218,1071 329,1015 247,988 213,996 337,850 209,1076 421,1076 248,982 268,933 284,1052 289,967 234,1018 349,933 153,1071 545,1032 152,1073 445,1071 195,1051 388,1056 232,1062 285,904 246,1063 334,1065 174,965 356,999 249,955 277,929 209,1075 307,1011 335,1008 274,964 195,981 248,952 324,1038 348,1065 255,912 310,1008 332,1067 222,1052 473,1031 667,438 672,383 582,485 410,464 695,459 651,466 783,440 809,394 811,429 797,473 805,410 648,42 687,142 359,208 580,143 581,142 555,165 657,128 786,244 793,254 792,210 721,118 332,160 493,97 482,46 726,210 777,209 783,210 742,227 599,135 430,109 505,48 632,56 400,99 411,89 417,142 473,85 510,44 690,129 742,183 736,141 797,417 778,413 681,374 663,432 694,516 661,434 723,477 446,473 481,463 296,402 390,243 426,164 302,454 302,262 393,238 309,251 337,553 327,362 325,291 331,508 304,450 393,241 469,178 317,260 564,40 633,130 551,115 620,83 424,153 579,68 367,155 392,119 423,93 612,91 469,95 508,46 407,91 343,388 317,329 492,84 304,354 349,141 408,114 410,138 535,96 596,54 633,171 602,81 558,181 547,39 673,90 522,101 525,80 506,119 576,150 638,64 599,95 815,240 794,492 797,426 805,488 755,171 634,156 374,131 494,48 478,72 552,85 322,211 308,298 312,455 495,451 409,433 739,489 564,444 293,443 734,456 244,1070 222,998 300,1062 221,949 214,945 324,1050 354,1069 258,1013 363,1038 373,1068 293,1064 258,1003 212,946 239,996 243,1045 246,954 236,1012 248,973 219,1050 254,951 208,1032 298,1042 321,950 176,944 265,1014 252,1019 178,960 392,1076 250,1025 333,1018 328,1011 352,1024 249,1060 363,935 327,1076 236,925 289,941 214,1037 237,1041 208,925 284,994 184,933 344,1009 285,1077 293,1056 280,865 235,1032 233,1015 315,1013 302,962 261,947 253,927 274,1031 343,1029 190,946 284,1030 305,901 40,1051 970,1076 102,1064 375,1067 346,1058 333,1025 281,987 322,1010 384,1054 289,1078 228,976 354,1035 340,1076 334,1033 282,1011 252,943 311,982 193,944 276,1001 250,971 281,932 309,980 326,993 237,956 260,940 297,997 284,939 363,1075 284,1021 348,1070 342,1067 274,995 277,912 197,984 376,1052 319,1073 214,919 307,1071 207,994 262,954 245,961 209,1008 282,900 218,999 413,1075 152,1013 427,1046 213,1006 233,930 205,1000 257,939 295,1039 276,968 302,1020 229,941 271,947 342,1029 345,1078 260,949 197,1026 295,1033 335,985 345,1025 163,929 440,1041 246,1035 300,1038 269,959 340,1070 162,1055 253,935 301,929 308,1063 148,923 408,1075 141,1062 640,663 602,742 577,668 812,1062 742,1051 854,899 835,1047 811,1040 715,878 909,1059 738,904 831,950 851,985 784,979 717,1044 849,962 724,1077 825,999 670,1004 813,1072 723,1039 814,1071 798,1021 667,884 586,686 457,712 649,694 477,696 640,713 482,702 607,693 636,708 557,707 527,692 633,700 422,699 682,720 618,698 603,761 558,690 503,738 641,692 533,769 562,742 500,734 865,978 581,914 622,826 578,837 618,833 666,823 504,839 898,1050 763,998 743,1049 891,1035 721,1023 764,1032 842,1072 622,867 577,836 657,822 575,831 604,806 556,847 639,682 612,960 869,1075 841,1077 822,1022 833,981 829,962 792,981 843,968 851,1016 736,913 855,1074 750,1076 705,1065 868,939 834,1056 749,1070 866,999 776,1076 736,1034 789,906 224,1039 285,996 242,932 319,1004 258,982 283,897 235,960 238,1078 252,932 288,977 320,1024 254,942 382,1061 208,880 249,1053 288,910 249,979 197,1010 383,1017 281,1045 177,934 317,1064 243,1069 208,1005 237,1045 205,1036 297,984 357,1024 342,1035 261,1075 322,1035 372,1058 338,1036 287,943 300,1020 219,947 653,711 462,689 556,706 616,676 504,726 721,781 247,1073 330,1064 228,1020 377,1061 319,1067 138,996 309,1051 313,1050 244,1058 213,1033 229,1040 190,910 288,1071 243,1029 269,1042 276,1072 240,961 334,1008 276,1057 401,1041 193,949 339,1062 222,1074 230,928 297,907 193,988 269,988 297,844 265,1060 337,1069 325,1060 148,926 385,1073 336,1030 364,1067 266,892 271,1066 338,1016 173,1062 486,1029 771,156 527,38 554,193 395,162 305,246 470,144 329,278 329,164 300,455 335,310 509,84 499,62 496,89 530,33 763,156 638,90 528,168 707,168 407,71 758,134 824,363 591,59 515,44 567,41 498,47 605,67 458,132 587,201 373,117 418,95 412,85 523,62 392,99 493,59 542,54 663,59 632,69 597,43 309,230 458,172 342,217 691,80 697,134 549,79 326,206 329,352 370,178 631,149 456,162 441,94 334,289 522,101 471,54 597,44 766,206 746,147 786,237 773,313 770,360 650,391 675,482 686,341 668,549 707,363 705,398 586,413 870,361 290,479 324,322 467,395 426,350 554,464 435,440 531,512 387,413 494,476 799,350 812,469 804,374 812,522 778,533 825,518 785,212 791,401 644,389 622,457 755,451 466,459 558,436 850,296 617,138 535,24 320,314 518,413 464,372 390,390 495,343 462,514 520,372 434,401 698,390 790,399 805,547 815,319 793,243 797,248 705,105 767,258 775,194 738,130 762,164 804,342 820,552 321,308 338,250 334,395 319,305 496,157 609,186 469,178 284,313 580,41 654,93 469,157 548,124 571,61 586,138 559,186 633,87 681,223 734,142 765,301 787,343 774,220 798,429 725,140 443,201 718,144 709,251 813,406 798,479 798,571 795,476 416,465 531,397 359,365 374,197 343,219 552,117 685,138 479,181 711,196 788,387 746,260 516,57 584,178 442,199 361,131 390,146 327,195 679,177 536,75 430,165 397,173 523,142 575,23 448,84 291,506 353,351 353,294 378,272 519,56 766,281 675,74 747,223 696,128 419,216 452,189 427,210 511,127 522,132 446,210 607,55 727,125 731,159 795,276 744,136 629,63 606,49 741,132 614,71 446,80 320,308 515,117 519,84 541,173 461,75 393,110 397,187 330,393 428,106 367,135 341,202 309,387 424,219 334,175 387,167 399,118 486,153 502,150 409,117 374,133 379,203 387,92 707,136 688,132 425,157 323,440 327,402 361,133 400,115 339,379 377,206 717,174 478,158 300,265 376,221 401,84 306,226 419,123 412,196 385,116 300,292 396,92 323,497 381,78 311,295 299,328 326,442 333,327 361,379 539,388 391,385 577,391 441,465 472,437 500,449 223,452 919,461 336,458 634,449 818,476 770,396 590,543 732,315 646,530 655,444 672,468 715,435 647,494 682,473 662,480 639,404 825,327 707,98 592,57 742,122 838,480 566,479 719,477 641,482 634,503 610,881 555,826 680,865 609,816 607,865 596,549 718,431 622,518 593,911 680,749 446,738 656,697 579,679 599,744 634,713 624,742 552,749 521,759 627,613 513,698 627,686 526,732 593,762 565,730 531,763 520,733 707,751 500,700 870,1025 799,993 826,993 832,1023 801,951 769,909 553,824 629,831 588,854 614,591 595,716 580,785 840,1045 818,968 720,952 813,956 781,926 851,984 821,967 850,1063 680,1019 800,994 830,1066 724,1061 738,1034 790,1048 764,990 832,988 814,1068 861,1022 680,832 625,673 655,731 526,647 603,765 619,699 561,673 791,1035 846,1027 821,966 822,1065 860,1066 801,957 741,890 390,767 782,921 823,973 624,784 823,1051 774,1001 893,1019 755,970 764,989 840,1050 755,923 809,936 734,1007 816,999 717,1045 774,1052 861,1072 820,989 754,975 836,952 841,1042 691,989 886,959 772,1076 688,1060 783,1000 822,1013 756,1026 890,1008 681,1079 857,1062 806,1074 848,1049 746,895 849,1048 790,1001 857,1061 799,1062 776,1042 735,1019 870,1074 729,1078 770,1056 712,1063 892,978 663,1038 834,954 734,929 389,739 628,904 532,826 527,827 533,837 806,969 712,974 833,1022 827,1030 737,1050 810,961 724,1042 728,1059 642,697 538,767 494,704 492,707 523,695 489,710 658,702 639,700 601,763 532,747 703,766 497,904 596,611 592,761 437,718 565,754 815,1072 779,1019 791,1045 747,1032 845,1037 766,1023 716,1058 816,1055 631,1066 863,954 748,994 793,933 739,1045 804,1039 807,1044 806,1050 864,983 737,899 501,807 650,897 642,769 657,839 509,823 619,861 652,749 600,899 580,816 605,882 667,723 600,840 594,914 621,799 610,857 403,779 655,886 596,821 558,922 676,731 548,950 608,852 836,961 770,942 782,901 764,1064 730,1059 757,1029 763,1018 839,1060 849,1073 757,944 777,915 773,982 714,999 737,1063 704,1064 710,1075 819,905 856,1045 749,876 473,831 714,852 607,804 672,861 555,800 860,976 782,925 857,989 567,816 632,839 652,783 585,891 566,835 631,897 665,742 585,837 601,814 521,884 719,703 555,696 604,770 516,662 675,761 662,813 597,633 556,623 685,831 682,831 636,700 420,710 852,1069 750,902 209,965 305,879 165,1038 273,911 259,991 344,1006 238,917 235,1048 239,1039 206,1009 257,1010 190,965 249,1015 276,975 298,1013 290,949 314,1025 322,940 197,1034 234,994 279,1000 293,881 326,1041 264,953 382,1006 253,1007 283,1078 230,1046 413,1076 47,1016 325,1079 285,1030 414,1051 756,167 816,533 811,474 821,434 821,456 787,274 810,469 725,203 708,215 539,65 531,25 542,69 332,165 294,405 564,82 601,45 573,66 665,108 723,202 688,210 731,173 734,194 564,161 617,130 691,71 603,175 475,45 746,163 680,142 629,144 732,246 782,195 651,210 717,202 817,508 809,370 428,413 800,377 796,223 784,227 760,147 823,382 765,249 776,159 806,275 821,438 773,290 668,171 730,245 662,131 679,135 357,172 324,302 467,92 599,134 734,121 818,463 781,330 608,441 678,388 446,438 468,450 449,490 330,195 387,230 305,430 350,323 376,280 318,343 300,241 344,420 684,514 629,411 662,411 621,499 751,477 577,481 412,459 443,455 523,462 417,445 825,452 790,541 829,456 765,575 675,395 596,418 685,390 452,478 498,429 511,510 419,326 417,393 431,372 532,410 238,231 699,174 460,111 427,159 463,108 400,99 457,128 345,144 478,45 414,113 655,158 512,198 677,153 506,195 475,201 468,49 461,118 307,205 678,167 466,101 506,47 297,356 830,460 761,225 717,151 488,56 402,152 456,79 396,151 493,129 682,79 691,111 513,33 657,111 479,77 702,169 530,39 647,60 742,123 533,64 335,133 605,139 352,143 279,329 894,501 396,371 478,385 318,279" fill="none" stroke="black" stroke-width="1.25"/>
</svg>
  