<svg viewBox="0 0 1080 1080" xmlns="http://www.w3.org/2000/svg">
  <polyline points="540,540 469,54 551,196 559,205 475,96 558,119 538,103 559,259 390,917 751,602 595,856 613,769 709,653 623,899 632,705 631,769 674,619 494,742 490,725 517,880 736,815 429,785 618,698 704,916 424,720 679,852 606,730 549,681 589,678 612,677 684,733 519,770 755,729 641,658 641,645 488,803 476,799 749,745 489,789 589,824 724,650 593,905 558,746 465,677 438,599 527,844 418,652 645,780 544,736 612,889 706,783 616,830 734,775 681,730 635,740 692,830 406,607 744,803 475,630 674,833 717,790 400,700 640,830 501,644 416,699 398,739 614,847 720,629 550,868 586,821 711,640 525,704 412,670 407,617 524,760 682,684 501,865 564,794 678,630 655,761 496,778 466,651 577,723 478,671 482,861 647,816 647,829 499,689 685,797 584,771 700,905 712,766 567,731 713,582 450,900 421,695 458,652 401,683 522,881 458,886 635,886 667,888 698,643 474,663 554,779 440,658 459,894 457,892 646,794 460,893 711,778 755,777 611,875 392,573 554,691 700,666 718,752 607,666 749,594 725,756 710,616 472,759 484,661 677,665 692,604 463,837 530,854 748,934 427,870 465,837 531,679 747,630 452,683 404,755 400,653 435,812 385,518 407,521 413,533 438,525 480,948 512,655 751,755 690,918 424,863 721,915 426,787 509,866 737,865 631,837 456,809 457,672 751,651 411,745 386,677 417,542 460,736 486,903 417,526 451,839 408,663 422,834 497,884 606,884 436,820 457,810 381,681 498,848 443,758 390,715 715,625 450,692 386,476 502,812 461,925 394,514 685,910 457,770 479,867 790,715 491,850 407,628 440,571 437,686 492,733 691,672 608,920 753,760 660,778 721,800 696,650 415,789 644,892 550,820 777,695 613,917 541,788 616,921 761,736 749,664 738,815 706,787 690,851 707,931 711,744 633,718 722,684 622,868 595,840 703,841 725,547 741,797 581,806 424,889 538,869 539,850 578,782 396,533 426,651 385,506 455,841 435,669 433,647 607,669 773,732 668,640 573,832 603,771 692,576 735,750 668,905 702,877 436,884 443,811 430,511 378,485 660,906 561,907 669,853 585,911 708,856 676,551 747,1002 442,623 393,659 630,803 685,851 678,894 733,695 757,740 567,826 513,852 555,849 445,593 541,757 757,719 729,805 603,852 696,873 676,837 743,640 568,898 707,916 691,836 692,952 399,710 555,864 533,860 532,808 363,622 708,792 507,642 690,707 644,784 765,549 675,621 641,784 729,602 752,634 617,866 459,712 667,699 564,738 606,771 679,793 729,661 719,720 305,563 688,782 707,576 760,829 509,760 469,663 759,764 688,868 509,872 746,520 645,947 484,132 474,216 576,190 422,198 433,267 609,101 585,68 522,184 532,91 664,170 395,234 560,57 613,69 541,78 608,88 644,85 469,125 445,206 586,205 617,95 613,45 609,218 577,3 642,155 655,104 587,16 493,141 635,149 434,35 482,385 612,9 436,306 410,186 704,259 621,40 585,173 486,149 433,273 524,230 422,108 466,209 432,232 480,68 684,92 444,116 475,76 673,97 583,98 595,148 463,144 678,191 437,90 696,117 447,168 487,202 640,118 497,46 471,168 532,147 387,183 583,180 418,228 464,134 608,62 418,259 531,80 508,43 437,190 616,178 458,77 455,118 450,227 564,164 563,213 545,43 409,185 496,57 536,343 373,725 693,924 743,558 664,946 496,793 522,848 491,703 455,876 586,845 498,810 389,613 425,458 400,653 380,482 546,523 620,54 548,45 457,274 596,38 421,809 394,649 401,686 509,917 416,758 439,944 423,446 559,49 647,77 591,119 554,71 606,218 417,695 426,684 401,507 673,818 609,794 450,757 430,852 411,486 525,523 494,50 616,42 368,232 542,94 462,166 427,153 443,135 553,285 443,187 502,58 414,197 543,27 532,246 534,105 690,145 411,290 567,55 526,177 460,178 451,144 518,64 651,253 653,257 647,168 465,57 521,251 707,234 316,141 611,246 560,86 669,284 510,40 539,88 541,294 405,207 654,111 583,218 504,49 445,90 428,251 745,904 532,662 711,910 720,790 718,712 727,578 615,716 424,776 761,654 533,687 729,736 696,955 351,506 536,528 455,456 366,712 634,837 707,785 729,646 753,679 735,886 481,871 669,830 484,750 694,895 705,857 759,641 470,658 558,872 729,524 687,920 542,903 745,708 461,715 647,846 758,712 729,920 696,879 477,891 601,886 524,892 571,888 399,501 465,730 481,743 570,848 515,909 496,876 721,887 747,588 654,669 542,702 586,814 548,900 459,876 638,915 719,794 745,740 732,487 709,855 559,672 703,767 667,886 659,828 551,864 730,831 738,541 615,782 451,703 493,861 679,853 325,488 564,511 518,81 655,214 592,17 629,235 622,126 635,55 673,113 690,280 650,162 553,69 505,35 534,47 520,159 512,253 528,28 454,94 574,125 704,224 521,185 671,184 626,62 510,282 628,165 394,210 650,207 608,14 706,334 597,59 652,105 492,446 578,69 687,332 412,118 546,276 470,241 612,110 516,50 494,590 647,76 588,32 520,84 525,203 435,160 422,126 714,271 559,172 498,86 686,217 511,171 533,83 719,190 532,205 495,85 676,98 449,148 615,32 489,46 658,139 635,164 580,297 416,838 431,509 396,532 558,449 407,517 500,792 757,533 759,569 507,762 427,878 444,895 505,589 517,76 624,129 620,235 653,175 637,229 604,118 699,221 566,177 410,150 483,271 477,53 408,338 452,166 574,408 461,213 482,230 474,363 471,222 409,215 466,377 688,85 461,267 446,112 438,259 404,247 490,338 441,237 473,190 646,23 615,317 570,140 583,107 692,318 528,116 404,161 482,242 389,291 682,249 611,234 594,266 374,657 438,480 389,678 852,726 286,622 270,738 256,592 347,880 769,547 330,1064 714,568 726,658 754,722 460,713 527,910 720,886 756,650 378,921 780,696 663,680 708,730 379,808 760,855 386,574 434,748 532,875 574,882 636,721 643,702 404,912 724,656 470,838 723,611 327,806 631,658 735,559 437,1027 734,578 602,807 556,747 462,895 440,584 710,953 436,805 506,875 470,734 549,926 409,476 491,830 490,823 618,648 768,741 742,678 738,703 469,832 589,718 574,650 373,654 638,672 706,595 676,1002 709,551 727,627 731,773 704,886 588,900 787,697 737,823 521,863 639,879 403,642 435,514 471,906 556,842 493,701 605,847 407,590 493,669 399,547 420,719 372,694 508,733 700,941 695,733 602,706 713,971 424,574 406,760 398,675 414,630 603,662 732,901 666,916 629,894 692,914 538,871 805,692 681,934 766,753 664,833 757,845 749,579 730,671 734,571 713,924 733,537 456,925 502,640 451,615 734,742 511,877 736,946 492,822 420,628 494,655 822,670 687,779 702,600 740,635 756,720 468,748 603,657 650,818 471,890 400,744 508,959 493,205 635,69 472,82 425,141 563,507 373,506 601,507 404,192 552,75 635,36 652,330 520,42 508,110 419,346 476,160 534,113 584,261 458,555 531,393 531,513 488,443 555,99 459,83 457,108 456,108 440,134 418,246 429,146 477,61 589,40 470,49 455,338 529,124 524,175 473,148 687,172 638,93 666,81 406,295 428,213 416,152 426,158 427,188 485,88 511,192 576,27 649,74 536,25 628,112 595,179 510,670 567,723 323,1071 457,1027 406,478 505,1054 376,453 628,736 527,688 488,647 486,646 620,787 573,881 679,691 691,850 499,769 554,805 490,850 470,835 750,554 588,720 553,831 424,726 700,885 759,730 731,796 760,745 586,863 740,837 651,871 670,792 529,731 593,659 395,755 545,814 573,796 522,808 470,862 463,807 825,762 267,1023 438,949 510,94 406,282 550,14 613,180 655,249 574,13 420,347 518,22 643,256 670,137 570,262 378,1063 379,1066 390,931 251,577 257,558 585,426 545,508 551,405 529,494 561,29 445,267 447,60 654,65 588,364 510,355 539,44 659,118 671,127 553,100 478,89 598,568 539,440 515,325 596,542 402,499 441,505 597,445 276,660 309,534 601,762 566,900 514,866 748,633 702,1000 317,479 638,880 500,688 609,664 351,681 591,731 491,633 581,710 558,825 719,615 498,688 395,623 436,857 421,870 651,98 706,184 583,17 705,268 525,190 559,754 359,511 454,485 293,535 260,617 276,583 309,889 337,846 276,674 287,725 300,665 283,644 314,737 308,724 253,537 347,723 551,354 481,309 506,27 660,134 461,294 494,345 469,60 727,84 285,821 320,1022 257,524 279,683 298,798 298,730 283,589 347,1069 451,1017 382,1023 349,900 262,1028 315,965 705,719 521,926 805,659 674,804 466,909 391,447 397,892 533,901 416,823 434,774 398,671 433,867 383,461 466,738 754,604 696,524 652,892 616,917 631,897 567,883 500,901 581,906 428,883 747,563 745,598 581,668 781,830 382,606 459,804 643,912 639,807 620,783 426,849 410,631 395,766 577,860 708,912 635,863 496,864 704,924 625,906 710,708 666,861 678,934 434,889 410,733 453,854 727,724 742,728 736,725 451,795 462,878 539,226 598,262 634,24 630,300 638,176 637,255 636,77 425,108 491,147 423,128 488,198 581,104 500,42 402,206 437,304 507,131 494,162 469,187 595,21 734,259 624,83 494,367 614,39 675,146 426,113 493,142 442,280 521,235 468,251 471,142 587,429 514,555 685,102 677,130 596,104 574,70 514,143 430,195 434,290 456,109 591,250 575,188 630,320 353,678 327,1077 371,898 279,565 281,583 283,613 323,716 265,563 321,984 330,778 270,672 288,741 282,803 269,563 411,1052 396,1057 681,1055 744,577 746,712 634,689 666,746 788,561 723,959 600,687 805,698 348,611 634,708 452,633 557,666 787,767 689,690 579,658 455,646 763,710 647,864 794,688 563,657 823,630 396,713 512,898 531,664 729,694 793,682 673,713 440,616 668,146 711,292 686,233 707,258 676,217 617,48 578,37 481,77 399,306 437,139 580,44 569,82 722,241 634,111 416,643 708,88 522,148 515,660 359,522 449,973 349,462 755,804 776,726 750,727 730,516 718,877 520,824 569,854 747,520 583,789 642,864 710,860 665,897 413,729 472,722 467,663 420,549 577,439 417,551 453,476 511,520 455,514 467,512 504,446 367,577 434,852 723,939 723,774 255,654 285,812 335,830 360,1071 355,995 298,1042 447,994 568,997 796,729 651,823 522,748 294,1074 403,1047 606,1024 513,1077 198,1057 778,663 769,695 501,73 445,74 471,344 485,130 584,597 716,943 600,768 521,779 464,696 375,650 444,892 426,507 513,921 773,881 488,740 411,507 528,758 463,801 547,670 314,1060 645,1078 325,1061 575,1029 428,1001 228,1079 529,1021 314,1043 438,1019 539,1068 490,984 368,628 596,331 482,546 573,377 532,379 381,645 423,843 496,901 400,733 486,779 730,927 588,678 590,724 750,958 462,860 417,555 386,633 419,565 480,462 273,662 259,606 292,824 712,135 488,74 547,217 622,31 432,151 586,107 702,265 561,251 666,83 706,390 688,217 655,61 492,332 507,316 642,168 691,183 688,286 674,141 650,92 722,286 643,141 615,71 509,59 467,109 436,343 541,200 475,247 525,230 425,344 489,228 636,234 423,161 713,203 480,164 518,610 531,107 688,267 615,262 552,123 632,64 433,116 415,348 445,54 643,50 651,252 670,138 395,260 438,90 545,249 630,209 602,33 519,205 655,234 666,194 647,226 410,235 567,524 587,524 479,466 344,696 306,760 318,484 273,604 543,463 467,315 406,158 626,42 428,129 420,178 487,69 511,175 599,146 703,281 659,168 583,148 729,366 620,147 582,386 431,229 541,508 550,475 455,531 294,979 668,1051 283,994 329,1056 400,1043 337,1023 484,983 441,967 285,1010 348,890 282,516 311,1019 525,1048 471,982 478,992 503,1049 684,1046 390,1051 444,968 267,1010 493,968 413,779 433,870 425,591 597,438 499,520 541,193 529,112 667,210 666,96 703,187 537,151 583,90 589,29 557,113 598,314 635,229 709,186 518,34 661,286 692,250 586,237 663,303 529,55 622,109 481,62 398,164 565,557 514,168 542,356 388,287 581,401 560,341 492,329 507,144 699,303 670,106 717,314 672,112 507,43 423,125 612,14 566,146 554,74 515,661 604,720 566,676 374,668 493,758 656,911 771,758 625,808 526,777 736,727 586,866 774,717 711,676 751,538 731,965 751,494 507,914 518,664 773,752 701,536 735,657 664,684 657,687 298,1061 536,1056 351,907 228,527 544,452 378,572 537,459 310,539 287,597 333,1053 478,953 699,1069 157,1045 643,1029 312,1042 422,1055 320,987 301,532 434,510 392,585 417,725 390,741 457,484 522,469 354,508 702,412 249,526 326,514 443,482 213,527 641,433 250,560 678,436 391,528 700,858 567,859 408,767 389,435 401,691 428,647 426,701 804,628 716,526 767,801 277,1032 325,867 349,852 814,598 748,787 784,718 779,643 774,789 423,775 595,924 766,649 454,754 715,629 567,788 751,570 637,717 739,508 751,641 732,512 761,679 702,592 277,990 305,973 466,961 511,1003 562,1000 696,779 546,921 482,774 788,613 748,569 767,586 683,548 793,545 699,605 792,758 628,905 740,828 773,761 677,924 669,851 761,575 610,866 431,713 476,1000 650,1066 534,1004 697,1042 355,1042 239,1048 384,925 315,1023 404,1070 447,1075 269,1000 376,1060 305,1026 362,1032 299,1044 291,1059 318,965 277,1051 763,1034 382,498 503,505 440,196 442,255 493,78 491,95 681,960 641,822 814,702 365,1069 297,1074 705,1051 314,1040 506,1014 539,992 280,992 696,1071 296,941 305,1047 337,511 304,526 741,815 659,925 746,928 466,843 512,81 475,55 575,71 527,182 437,330 589,411 482,216 436,323 526,373 478,318 578,96 515,360 592,564 472,341 568,435 479,574 546,100 564,36 530,70 442,113 663,130 582,76 726,699 664,670 669,888 628,777 656,728 572,855 470,800 700,895 478,696 526,826 606,766 377,636 456,1010 645,1065 401,1049 317,1070 296,574 278,536 342,481 442,860 748,926 755,552 750,607 702,606 328,1047 273,506 276,546 312,670 284,942 696,1053 398,969 297,858 316,688 252,644 371,824 251,477 296,884 295,769 278,852 324,657 270,723 256,692 564,680 705,709 458,752 405,590 704,760 630,737 785,672 656,1069 785,667 275,1070 329,1047 355,780 316,870 266,843 274,716 289,673 254,566 265,666 410,1068 289,786 317,849 307,679 239,708 419,1012 582,1021 726,612 708,917 749,784 380,632 443,699 509,64 489,44 428,233 432,196 524,204 615,189 626,195 573,265 589,183 524,65 440,336 439,123 474,390 637,179 577,22 619,206 691,297 659,99 570,205 717,284 694,199 495,588 637,135 458,618 696,167 595,297 517,24 460,171 438,393 498,51 415,128 544,414 718,931 759,643 589,923 441,673 454,784 399,483 537,849 411,737 382,629 630,821 631,802 724,597 619,808 451,900 671,848 439,791 734,701 702,950 738,660 571,719 720,835 711,837 380,584 628,964 388,598 521,937 346,556 491,807 542,913 737,564 746,538 688,859 811,679 722,498 671,884 691,830 708,907 427,849 711,956 697,776 400,692 610,688 759,537 703,917 754,748 787,631 698,971 680,921 682,664 407,713 487,757 560,738 482,717 513,765 506,752 667,733 492,960 546,1056 386,972 477,1013 601,798 709,741 693,881 717,871 652,1008 531,1028 524,722 762,538 600,698 555,404 540,350 429,309 460,163 493,407 470,358 422,194 478,204 514,158 422,207 444,166 668,85 727,296 634,37 686,139 488,15 627,290 615,50 450,78 430,110 516,86 569,245 532,171 658,315 565,132 676,86 563,59 494,910 457,800 540,491 618,458 405,584 551,495 600,482 586,573 583,440 569,500 486,205 494,385 483,279 588,976 456,1010 447,749 601,355 452,533 453,508 467,733 494,854 568,853 540,711 569,748 461,646 681,219 656,156 498,467 264,575 283,836 259,703 306,505 260,565 267,559 268,780 292,787 704,136 453,526 247,550 259,735 310,801 270,551 276,527 348,661 723,650 704,662 711,550 754,572 706,1010 481,111 610,229 685,510 492,25 416,136 527,42 685,96 583,64 476,358 512,114 510,777 565,798 551,888 570,826 432,690 608,862 678,758 678,749 794,736 536,122 450,185 441,153 535,535 429,514 477,536 645,302 681,270 664,262 657,89 654,139 524,296 574,545 561,416 661,222 292,1056 299,944 556,970 593,1027 345,904 810,734 765,597 738,940 366,827 276,842 260,544 265,555 372,844 702,823 405,598 715,223 693,316 678,211 671,178 492,162 535,66 592,111 563,253 702,278 633,124 724,328 535,28 545,62 674,229 694,270 689,308 497,431 499,306 545,367 661,226 713,239 506,345 511,230 405,290 502,197 503,284 549,341 491,34 441,100 404,210 506,424 495,177 348,829 245,459 409,978 433,1013 231,1039 410,1069 475,1037 427,808 601,909 804,704 761,561 331,989 322,928 606,1014 513,1012 301,1020 289,1011 350,1049 571,1044 533,1036 574,1055 453,1013 320,1068 709,1025 360,1011 254,1049 725,725 511,916 552,671 486,708 501,638 787,783 658,424 781,837 446,913 572,644 590,1002 559,41 734,264 642,425 251,622 280,733 358,767 273,885 385,974 301,925 345,922 348,933 304,827 361,785 651,234 715,335 620,23 564,203 670,368 404,232 567,458 256,591 253,528 310,1077 287,992 471,926 272,1002 391,945 262,625 284,618 275,841 410,1006 720,1049 447,1015 334,1031 453,1003 295,1078 321,704 336,1016 287,768 309,579 273,656 365,845 556,247 445,878 440,672 384,493 443,551 408,490 561,908 559,864 252,1024 539,976 328,965 358,926 247,625 358,1075 263,565 480,508 464,484 396,515 393,749 531,356 482,151 422,336 445,181 502,85 692,164 442,802 497,927 407,720 485,1019 462,1030 448,925 413,714 473,1030 406,673 656,653 486,659 829,694 720,527 789,701 699,992 782,734 618,924 715,899 680,899 458,901 791,623 732,898 566,930 740,541 717,588 669,911 654,861 738,791 450,858 503,719 583,758 705,577 586,925 680,602 822,606 742,787 829,587 790,695 761,546 645,653 369,671 611,941 762,558 733,566 758,591 662,783 466,885 426,728 428,765 369,588 513,1044 418,1017 501,1064 267,1025 306,997 277,517 240,598 273,610 394,1058 290,1054 521,1059 250,1011 503,930 466,775 635,926 842,606 498,731 670,664 685,909 716,798 704,981 539,328 546,112 686,183 585,24 677,174 418,118 724,322 462,147 575,1007 262,1018 515,1078 248,1036 733,826 728,941 771,711 757,786 789,602 696,598 604,1018 719,1068 637,1075 287,1072 367,1043 411,950 305,1077 372,1067 289,609 605,484 505,541 420,591 704,811 428,868 514,893 512,899 427,509 617,754 536,681 338,482 767,782 796,586 738,598 455,48 429,1075 250,1078 1005,1036 489,1031 531,954 305,1025 572,1039 261,860 695,153 680,159 566,342 521,325 605,88 723,253 446,23 690,867 508,911 464,743 472,725 601,764 621,790 282,520 459,512 360,530 529,722 627,742 605,938 393,755 471,755 510,664 702,700 651,712 579,821 718,919 569,900 500,905 586,889 264,1046 289,1012 334,475 441,916 348,504 412,794 387,505 417,796 352,599 453,909 322,975 364,865 275,1049 319,914 547,989 477,1020 438,1025 382,946 675,1010 335,924 364,886 314,846 292,899 373,767 451,486 234,571 595,427 280,539 280,484 278,766 286,661 326,690" fill="none" stroke="black" stroke-width="1.25"/>
</svg>
  