<svg viewBox="0 0 1080 1080" xmlns="http://www.w3.org/2000/svg">
  <polyline points="540,540 614,230 701,379 603,342 593,395 682,194 629,313 538,169 730,622 654,489 550,166 636,291 730,351 556,491 671,276 712,570 767,719 750,685 714,799 747,795 644,927 811,726 674,545 667,228 559,483 580,382 819,651 651,914 637,1022 772,694 606,490 613,358 667,441 548,403 616,368 664,359 666,317 642,308 666,254 677,315 673,328 585,343 724,476 701,965 665,1001 664,1024 694,731 811,818 531,44 620,334 602,388 660,356 592,343 670,392 679,256 562,375 651,293 577,444 541,403 603,481 613,169 634,389 536,94 618,361 580,84 510,205 751,335 557,364 712,395 456,138 575,143 684,427 596,347 544,421 588,510 712,340 510,433 662,342 566,149 714,449 742,794 719,611 571,160 622,232 402,166 599,140 578,257 412,119 460,149 524,213 693,263 673,468 786,807 726,808 794,776 656,952 637,942 707,773 709,770 663,944 819,798 576,426 673,511 783,795 715,720 738,837 746,647 643,958 658,991 676,781 615,1016 730,708 748,720 737,679 599,279 557,177 587,261 669,357 539,154 666,423 596,299 545,108 723,476 651,516 580,329 693,290 580,308 666,375 667,377 695,329 595,445 715,294 615,438 523,484 695,462 548,51 732,786 669,416 609,251 568,381 603,184 536,531 671,258 688,286 611,517 615,405 647,494 650,506 594,506 522,29 407,161 467,121 416,179 409,125 442,159 645,173 690,429 747,620 762,528 748,849 722,442 778,902 737,401 741,671 697,449 787,674 653,246 628,141 757,594 767,671 645,115 741,827 764,823 630,241 642,189 372,175 366,154 567,167 778,665 726,476 490,75 428,158 358,160 656,243 728,863 706,873 799,522 516,196 683,281 405,158 439,192 451,125 397,126 623,180 682,180 523,219 557,133 692,331 634,137 706,537 711,472 589,59 792,658 621,354 780,622 655,355 628,303 750,564 735,415 767,848 682,883 667,906 800,801 674,575 586,422 610,208 527,222 580,145 598,467 527,482 541,510 766,392 390,578 461,525 421,628 503,1026 294,898 482,851 353,548 720,169 353,193 460,181 551,64 449,70 357,226 434,125 440,76 445,101 437,96 723,221 548,501 740,490 756,816 629,447 664,454 367,538 702,353 696,330 421,532 474,542 422,403 470,1053 392,928 434,959 459,959 371,837 526,954 385,736 363,979 425,956 407,939 449,663 437,872 421,888 360,930 502,413 791,612 735,594 749,832 777,682 773,590 784,606 629,490 693,445 579,280 493,59 456,95 416,95 564,232 488,150 562,241 492,166 489,66 551,175 713,692 595,325 754,655 737,726 639,1035 659,1018 722,822 643,837 951,624 672,857 649,845 649,1046 787,648 757,768 743,884 697,385 655,178 698,166 452,181 454,50 561,217 402,177 474,86 636,374 540,435 582,354 645,459 539,383 760,535 674,873 802,452 624,1067 699,897 744,789 691,632 676,444 772,800 721,752 605,64 552,30 585,394 593,215 503,62 705,363 713,399 531,490 689,546 657,488 774,830 733,597 697,933 628,825 725,877 769,852 707,854 653,1025 806,494 421,502 389,436 441,925 321,888 560,935 385,828 433,1021 462,802 462,823 397,837 491,890 417,929 422,991 426,872 398,436 417,1036 428,458 747,368 667,205 630,258 740,316 595,156 645,122 662,114 614,131 383,138 707,110 531,443 683,564 523,425 573,399 531,427 759,652 784,893 768,623 657,155 625,415 761,657 726,844 785,611 681,920 664,1023 713,940 652,980 735,747 727,545 589,306 684,574 710,663 676,504 784,884 792,706 773,841 629,985 859,653 557,489 603,190 735,297 717,309 690,173 567,39 577,368 642,511 664,236 666,118 590,172 621,189 595,282 519,54 519,223 747,334 508,130 578,241 399,181 587,155 462,101 517,211 375,111 555,113 499,161 503,96 651,188 460,189 712,325 751,369 592,30 740,234 428,133 515,105 584,287 573,379 673,440 498,26 598,77 692,644 758,764 761,879 789,625 751,614 790,620 692,835 824,577 471,62 716,192 671,228 726,224 619,129 669,101 650,484 547,355 668,362 664,87 655,258 549,389 612,404 497,504 760,450 705,313 519,476 556,443 584,425 570,292 772,848 612,846 697,813 655,63 559,515 612,264 567,107 645,162 642,231 634,471 544,393 537,516 591,319 702,168 636,129 617,96 660,351 574,249 742,350 427,84 367,251 606,100 724,236 599,52 596,150 523,233 373,148 718,174 593,452 389,592 441,1000 479,1012 443,764 451,985 425,1016 488,1031 430,813 481,891 437,782 419,432 448,592 426,532 484,1060 426,940 509,1026 340,976 461,919 484,1061 426,711 387,415 431,816 427,884 458,480 423,1022 464,404 390,811 468,1034 441,736 443,1051 467,990 377,975 458,858 485,1068 427,844 427,744 475,831 457,955 386,791 415,882 466,1000 488,1051 380,1025 416,912 373,1059 445,676 388,898 462,804 468,845 475,1013 437,673 430,618 437,619 450,838 369,804 394,1072 488,958 364,995 376,852 513,989 389,506 549,428 512,521 633,273 558,432 664,441 470,532 718,395 748,363 721,700 689,603 685,72 392,150 433,93 639,50 769,584 787,852 783,835 730,404 761,533 684,35 713,571 600,456 571,376 573,482 602,150 367,128 492,72 400,122 467,213 358,1012 379,1020 367,820 406,978 363,989 445,920 342,913 504,1023 363,770 541,377 572,451 508,458 367,742 459,850 330,1058 500,754 423,878 407,973 524,661 615,69 688,294 797,785 745,881 779,644 677,1003 630,927 768,774 788,631 767,610 739,686 675,1005 659,822 681,864 678,1012 751,348 680,186 605,29 365,176 664,219 601,490 415,531 453,497 451,487 457,461 429,1001 403,625 452,1039 450,741 395,889 347,1022 448,780 408,374 442,916 374,967 413,345 408,958 437,717 388,1026 453,880 428,788 375,937 439,1009 452,1052 439,646 430,530 426,421 393,569 724,402 699,935 711,711 545,73 727,666 753,492 777,596 674,845 658,995 763,548 667,138 412,201 527,39 608,131 569,99 488,239 548,197 470,115 390,178 460,230 544,44 363,249 476,28 690,146 478,147 411,209 594,163 440,87 585,77 719,469 487,109 680,394 678,76 730,389 584,481 627,443 549,177 426,160 363,233 476,118 528,150 666,482 606,492 571,28 729,804 651,1057 785,816 638,454 622,100 388,169 527,218 492,116 393,162 527,167 409,185 483,117 482,173 663,147 696,423 680,456 704,603 669,103 718,211 621,78 672,441 754,385 666,401 465,73 576,216 413,173 657,225 713,508 763,578 689,493 736,842 671,830 694,985 765,659 780,864 756,703 657,1051 808,664 687,386 548,452 649,253 635,253 577,36 708,466 519,433 702,458 701,489 521,442 719,458 687,587 535,393 562,434 773,604 677,1049 752,677 714,480 731,236 702,326 763,586 716,152 747,350 499,521 389,513 477,425 366,1044 481,429 703,420 526,103 400,99 435,212 485,39 672,421 437,565 419,468 415,457 392,611 409,1018 475,870 331,955 456,773 410,1030 441,883 492,965 419,411 404,582 424,897 373,932 425,552 462,445 376,749 493,217 578,110 571,151 526,151 402,209 862,113 390,550 695,458 653,303 680,407 481,531 424,598 364,1047 474,832 412,748 491,932 327,1065 466,878 425,1029 435,615 386,893 482,931 428,485 486,965 454,776 449,479 431,533 462,484 446,453 464,1027 420,494 490,565 548,375 551,473 672,541 406,450 420,969 443,1056 382,660 484,743 440,940 425,459 721,416 666,162 603,39 404,179 448,75 646,89 568,27 542,42 698,230 727,242 769,783 726,795 756,784 740,867 681,862 697,1009 699,782 742,581 726,370 746,442 504,465 789,587 723,601 565,66 628,256 766,540 784,644 718,573 807,814 636,869 685,824 633,843 866,734 635,939 649,1065 691,809 624,903 698,798 735,140 508,104 676,142 778,667 679,492 664,70 413,94 724,165 680,263 719,134 655,154 668,70 698,206 495,67 753,306 492,26 550,65 773,571 754,774 672,1055 680,886 754,483 720,178 702,682 735,436 607,213 563,68 532,21 643,230 417,133 467,73 421,136 367,143 401,87 415,121 525,266 476,33 326,331 440,107 453,105 378,150 542,27 695,260 371,560 569,364 589,498 628,336 578,515 584,397 609,414 579,451 646,511 377,491 769,300 405,203 409,109 350,228 458,32 342,215 633,48 541,31 518,27 362,156 570,108 341,172 719,263 797,849 682,894 755,624 745,813 727,266 720,315 739,365 400,587 666,276 650,296 367,119 355,292 549,72 505,50 516,86 537,254 601,156 735,588 762,838 607,894 803,820 785,711 778,710 787,724 799,843 735,480 684,1029 773,645 660,1061 746,521 810,811 805,769 754,597 762,615 810,674 765,878 728,824 786,797 782,723 638,851 739,795 770,865 716,316 460,192 674,235 450,163 419,207 361,183 377,190 480,92 429,131 643,113 662,344 406,468 431,990 357,979 598,244 391,185 355,264 427,95 425,222 692,158 648,80 547,29 691,122 801,787 764,785 740,911 788,627 453,408 386,850 442,761 385,1072 443,602 444,988 466,767 421,1057 484,892 470,945 441,889 454,944 435,318 461,946 431,915 398,783 431,882 482,1050 347,1016 409,899 370,948 353,1055 461,508 365,957 401,748 695,166 773,656 606,499 664,369 619,451 714,263 618,426 534,153 719,204 688,218 676,407 612,482 570,244 628,481 599,348 742,268 627,154 542,485 640,480 396,531 623,402 599,383 670,402 767,780 730,829 795,821 619,898 664,991 741,296 615,442 568,313 730,639 573,277 591,511 681,189 564,252 429,164 396,1065 380,884 387,990 450,710 436,556 768,306 599,141 694,615 648,354 805,784 684,832 653,902 632,902 664,1043 625,1014 775,785 532,70 371,156 418,72 387,154 711,226 735,285 565,29 436,75 622,60 674,141 549,135 489,40 541,65 653,150 650,44 624,149 694,356 673,355 485,466 418,553 404,1024 379,1004 415,1005 403,1058 384,822 516,953 371,744 408,1073 421,393 414,960 440,416 433,506 441,592 616,345 427,579 472,529 426,423 444,544 427,405 371,1029 396,862 392,1029 483,991 441,651 476,897 362,1066 433,634 369,1006 505,895 405,854 383,997 362,914 389,1040 430,976 459,886 480,822 484,1077 481,873 472,779 379,130 448,199 388,94 363,232 358,268 376,135 610,153 659,93 450,82 637,67 628,99 574,33 500,229 564,68 671,133 629,75 758,437 688,113 520,462 699,135 523,431 449,563 719,341 501,443 721,572 607,330 632,64 484,52 477,154 534,233 488,63 543,21 416,187 739,261 467,198 335,200 722,205 694,146 746,308 402,547 383,565 670,464 812,741 667,99 806,706 776,705 594,47 493,184 537,150 668,556 671,511 663,235 757,693 636,194 588,206 777,769 789,615 666,865 680,1077 738,265 774,650 650,999 631,1045 719,768 637,953 650,838 795,834 677,921 641,860 688,863 607,1036 780,767 776,792 805,773 766,857 641,904 808,651 523,24 712,428 800,840 790,847 585,923 766,743 715,436 613,487 666,480 580,480 764,456 591,508 583,510 665,138 574,522 728,424 618,492 525,477 539,469 580,448 451,565 407,1023 410,840 400,1078 357,910 377,994 488,986 431,668 451,934 439,836 414,872 378,750 530,864 379,795 402,466 739,517 563,457 549,468 619,139 432,213 473,194 504,47 567,202 776,869 644,849 772,704 723,523 710,821 706,954 714,223 708,144 538,30 698,135 380,115 491,117 371,128 532,163 443,57 356,245 416,196 634,132 559,98 399,84 407,257 398,1032 510,993 421,1031 496,995 365,315 447,54 496,51 425,142 611,234 482,116 409,65 503,135 505,135 650,59 416,65 373,141 545,135 531,197 570,199 493,236 671,121 415,640 401,495 430,372 395,611 386,1036 426,301 399,994 806,854 575,57 721,263 661,503 494,400 724,450 635,80 693,161 733,271 439,582 429,985 481,1019 479,1032 472,957 477,976 474,1030 411,1016 463,543 433,629 434,591 381,711 407,392 413,652 730,183 751,457 807,759 775,631 796,677 529,414 510,430 402,484 392,609 428,445 447,499 409,492 471,519 437,445 373,1053 509,1002 450,969 487,758 386,819 429,961 451,929 488,1009 425,713 393,951 532,1053 286,863 736,177 442,249 500,219 351,166 571,224 431,123 395,263 525,85 583,146 638,76 667,72 699,105 734,417 761,399 653,56 492,46 607,105 700,321 410,85 491,51 670,88 779,640 842,726 632,859 729,798 630,303 507,161 483,103 482,50 662,130 540,449 585,450 812,774 757,760 658,885 650,950 772,812 796,751 633,1028 758,838 710,798 693,101 531,158 643,474 722,632 521,394 770,437 438,466 487,467 434,521 497,467 393,579 426,618 414,682 436,731 474,904 473,813 423,1039 459,843 482,896 426,1000 359,1026 428,433 480,1019 465,877 382,1074 493,919 446,1077 409,990 377,1022 484,970 475,939 467,877 372,961 398,696 466,1055 453,848 465,942 494,973 372,1077 443,487 381,520 454,469 392,995 530,1078 763,761 716,712 646,912 704,763 639,900 675,972 761,468 670,1075 743,669 723,800 622,1023 666,898 717,788 724,831 733,868 717,763 799,731 727,491 761,571 653,338 435,98 429,101 470,214 424,202 491,133 388,102 349,339 633,456 588,461 609,284 488,197 493,94 525,29 383,114 384,203 436,107 546,33 809,865 733,455 588,494 512,486 580,454 560,502 479,398 357,1017 435,991 439,707 431,1017 405,1048 397,922 370,872 373,1017 428,708 483,843 471,995 398,899 424,776 438,913 390,983 364,996 436,914 413,1028 400,1003 495,769 651,150 363,191 398,110 459,108 464,49 432,172 455,26 744,222 543,464 575,468 592,516 739,391 620,492 424,451 632,410 392,489 430,473 736,265 702,112 739,756 815,742 802,792 670,942 824,679 698,864 635,1048 657,819 717,804 719,895 795,584 752,660 549,406 741,168 568,525 597,297 670,523 571,249 673,236 438,555 486,901 432,650 375,507 475,424 569,463 706,598 818,785 712,519 538,504 635,512 530,489 598,328 460,29 534,173 489,81 582,23 435,183 347,183 737,322 485,176 579,87 412,105 680,84 618,45 370,184 428,110 626,315 636,348 540,57 654,57 556,78 488,177 546,253 488,175 535,97 586,30 523,129 699,277 574,91 598,516 590,349 523,481 649,85 656,95 544,119 659,184 655,341 633,411 784,849 654,964 671,769 642,936 746,746 625,471 496,71 568,33 478,204 614,179 591,106 558,148 531,235 586,121 771,429 552,377 834,798 566,353 656,251 683,354 761,372 718,246 604,82 386,126 429,68 427,94 418,82 508,63 380,107 351,267 464,147 520,138 492,34 762,367 399,73 553,108 486,30 808,641 789,828 692,661 739,678 710,808 787,785 726,855 639,1054 616,133 756,775 798,814 638,60 601,96 622,79 635,68 730,459 792,663 776,654 765,508 757,882 803,729 658,147 807,759 699,256 722,242 592,89 620,51 704,158 472,49 542,43 672,170 635,51 763,653 837,713 589,432 726,677 702,941 689,839 679,1010 667,862 676,911 641,1061 665,721 706,156 642,159 465,260 742,198 500,243 363,142 705,191 694,626 800,633 647,539 614,272 652,334 664,327 536,144 488,206 535,145 621,248 730,593 762,869 636,892 664,971 712,965 739,351 392,459 704,354 684,326 737,360 759,406 665,58 585,107 484,92 386,208 572,105 617,210 377,246 396,166 422,111 540,234 652,163 368,205 413,97 409,260 436,1044 342,873 483,1060 366,986 429,861 458,398 416,927 463,1050 427,380 444,694 409,946 479,1054 487,1008 431,674 419,881 411,529 389,410 485,550 400,450 433,808 455,873 339,905 518,1046 323,1001 528,1023 398,1055 395,851 448,1044 472,889 473,902 404,975 408,436 430,502 490,1018 425,870 378,832 450,968 395,995 435,1032 493,826 349,877 449,1027 422,791 448,426 443,727 391,152 392,251 592,16 558,449 651,428 476,417 655,511 503,497 681,98 576,94 528,26 522,43 340,195 461,199 444,47 689,102 628,90 625,45 363,154 410,203 425,93 328,287 412,96 608,18 546,491 471,414 770,458 495,411 765,565 738,718 730,842 716,845 626,843 729,958 641,70 632,242 708,316 735,235 689,235 659,60 765,669 755,876 775,860 766,714 795,788 724,870 734,827 643,999 663,905 687,948 742,649 677,104 668,103 596,24 714,767 668,828 656,999 713,957 655,931 804,529 401,471 420,465 441,519 369,1035 384,898 448,795 348,889 557,764 686,1028 631,914 740,1002 621,1021 794,369 531,512 516,485 754,553 576,484 698,527 561,413 392,450 478,458 642,305 772,876 534,105 513,167 524,204 462,245 557,180 705,244 709,507 574,491 611,139 621,92 672,495 640,126 418,201 654,132 698,561 713,581 571,304 622,322 611,306 410,553 385,796 402,652 367,1038 363,892 385,897 653,88 516,42 716,160 521,18 393,248 391,105 492,148 494,210 511,206 509,116 364,182 369,217 441,167 423,186 435,122 538,52 393,96 518,283 677,581 704,642 551,72 441,130 431,220 439,127 516,183 530,188 577,174 583,402 712,551 749,777 751,803 808,829 628,877 782,699 727,842 645,943 689,1070 720,812 746,808 641,899 728,834 787,771 729,196 400,96 442,177 749,321 361,130 539,218 756,461 751,338 723,180 688,100 746,300 636,421 708,567 782,903 717,207 741,747 813,753 789,652 784,878 724,258 669,78 739,245 685,120 751,286 712,135 775,772 615,998 808,536 365,486 663,507 529,501 715,306 524,409 645,348 671,513 661,63 551,49 482,59 608,125 412,180 507,0 732,643 568,135 565,16 727,803 784,859 804,758 623,931 694,934 806,751 643,1055 678,933 669,856 681,926 841,716 650,846 684,866 739,867 619,173 431,89 433,110 432,68 404,181 546,222 801,840 640,922 645,838 673,846 800,855 704,707 683,42 516,243 501,119 512,265 354,179 505,202 404,199 577,1 701,424 630,176 463,259 538,216 575,126 591,133 593,200 352,167 643,106 793,831 782,827 791,833 779,789 676,901 706,850 825,758 689,259 676,168 696,320 788,606 692,506 676,274 708,228 711,526 490,156 679,315 577,378 697,268 744,874 734,841 824,726 608,934 664,864 747,877 694,622 809,778 764,585 701,776 813,728 608,1047 670,871 848,690 432,17 388,706 673,136 347,800 401,1064 440,777 485,944 429,834 486,870 394,945 473,1040 384,157 407,146 405,235 618,243 489,34 501,145 725,186 425,99 359,201 415,237 390,106 611,103 602,36 621,140 695,363 691,229 737,500 763,430 472,436 438,575 411,647 473,1056 482,977 366,1044 408,266 385,480 401,620 383,404 433,515 469,1028 463,768 440,858 388,884 394,1040 445,879 464,876 387,906 464,768 408,231 362,1076 390,682 375,627 512,461 585,483 502,516 612,488 763,301 672,1004 625,877 695,905 812,797 804,720 782,911 804,711 763,692 669,293 693,592 600,410 605,421 541,384 661,517 553,339 421,610 409,446 454,1077 470,898 447,1029 396,306 385,725 473,1005 292,810 698,250 711,245 495,448 598,505 639,438 532,479 587,244 304,240 537,464 407,430 436,575 385,412 453,863" fill="none" stroke="black" stroke-width="1.25"/>
</svg>
  