<svg viewBox="0 0 1080 1080" xmlns="http://www.w3.org/2000/svg">
  <polyline points="540,540 634,949 363,792 326,687 436,686 342,674 312,781 357,763 284,666 318,724 300,821 374,837 493,792 478,775 612,724 394,721 450,693 578,691 431,750 281,719 534,695 326,699 322,700 339,679 408,741 416,692 287,793 387,1007 419,986 364,983 488,983 544,954 581,962 310,998 330,1003 323,989 467,994 393,977 498,995 391,1003 468,995 425,966 342,872 407,976 574,980 564,976 363,977 367,968 490,957 453,1007 306,962 572,916 372,933 522,940 583,923 361,843 454,1006 407,991 521,989 370,943 439,968 430,984 566,982 341,956 353,874 490,868 419,916 414,910 318,888 453,870 423,894 326,945 344,932 510,983 529,992 345,954 396,1007 386,976 372,977 469,890 485,894 388,888 490,885 413,886 555,920 483,874 313,888 464,896 312,876 397,919 628,636 597,511 574,530 588,562 592,529 608,493 612,561 571,537 613,493 571,558 576,588 618,677 653,760 631,632 282,681 474,621 291,680 390,638 274,664 418,675 379,658 377,667 453,620 443,683 457,650 598,928 473,689 556,680 248,649 633,629 609,537 593,620 610,647 595,632 601,797 614,779 488,854 510,749 633,857 328,740 649,919 604,802 621,875 629,903 365,781 458,770 557,724 488,731 375,785 592,829 294,861 459,770 376,827 431,852 570,732 481,746 388,804 416,795 424,808 401,753 422,808 387,753 408,773 260,761 372,822 245,705 297,777 276,739 277,665 292,901 300,472 309,608 305,483 292,539 393,608 440,674 467,686 509,660 420,665 535,665 634,715 397,714 412,711 486,719 400,708 587,927 509,955 426,945 587,837 594,663 572,861 566,833 565,856 602,855 546,585 524,598 541,605 476,621 544,591 604,943 597,936 611,896 574,986 684,888 567,958 562,936 600,808 591,843 603,854 574,866 622,918 587,908 205,706 462,861 471,859 313,797 328,779 399,817 531,740 521,749 596,892 596,801 526,703 293,721 313,811 349,797 306,860 303,975 339,876 290,872 359,938 284,959 633,858 383,932 289,892 276,760 275,758 270,694 265,652 292,704 346,555 315,647 369,561 278,705 333,590 287,641 388,622 350,609 241,697 263,652 345,457 321,572 349,609 582,663 562,613 562,570 616,715 591,328 621,434 641,164 571,164 418,140 422,212 377,273 509,70 393,395 408,367 414,355 409,216 435,251 416,133 414,216 406,378 370,331 415,253 428,142 502,126 638,179 576,195 687,220 645,179 599,355 594,427 565,402 558,372 595,435 669,196 568,384 630,393 647,300 547,438 563,419 537,454 659,217 638,283 609,205 621,271 616,199 605,414 649,308 689,282 609,217 618,393 602,251 620,723 636,656 456,658 500,654 537,997 595,565 673,796 666,870 555,987 680,935 531,998 546,782 555,747 471,829 646,660 231,724 288,518 345,869 336,809 335,790 392,729 354,772 358,841 445,853 301,435 329,517 588,920 681,922 662,905 636,871 623,959 395,890 481,969 622,925 229,709 503,786 468,791 355,705 371,673 366,674 364,683 349,557 346,502 359,816 319,447 367,663 483,800 324,701 612,661 671,652 524,829 313,851 579,801 506,744 293,974 487,1024 370,1006 258,581 296,602 612,637 232,592 302,550 278,582 262,591 322,608 314,612 241,572 291,644 248,552 267,718 338,679 316,691 346,605 343,573 531,670 583,859 362,933 437,893 652,698 542,786 455,956 293,791 410,859 615,869 671,860 645,747 641,708 623,663 647,746 323,870 619,831 688,936 570,748 620,812 643,874 689,865 641,770 630,646 614,511 633,511 620,500 381,728 438,728 670,734 656,916 626,835 523,639 350,600 432,681 550,873 445,748 340,536 334,509 347,568 333,472 315,458 326,692 250,605 258,699 493,51 633,172 531,132 639,146 484,107 608,165 441,210 424,298 449,190 436,251 405,351 357,297 413,441 365,236 420,152 483,145 653,131 475,116 527,156 457,90 672,215 564,177 551,158 555,115 363,184 556,126 508,123 653,161 644,396 607,126 605,191 508,137 577,183 592,177 414,115 677,182 648,168 530,195 504,196 529,180 661,168 332,184 665,112 347,216 536,109 452,161 438,229 467,94 607,187 564,173 620,181 385,138 574,176 599,163 530,114 587,109 462,122 436,118 529,98 650,338 528,463 665,259 657,302 670,322 612,389 664,215 617,506 493,674 612,474 332,1016 324,953 350,974 250,717 337,909 353,1003 341,964 335,988 294,760 317,850 303,1001 351,828 566,679 524,653 583,516 599,572 559,567 568,557 537,614 577,577 535,582 561,567 607,565 336,698 616,562 613,490 532,738 620,851 637,900 381,974 657,898 592,871 630,891 374,921 363,890 374,699 356,1027 208,622 369,925 307,937 325,1005 411,1002 304,861 229,705 380,1052 266,821 679,960 363,848 337,1016 437,1029 424,1037 540,936 466,1053 534,882 466,949 515,849 403,1063 662,1045 504,1045 485,904 473,929 545,978 545,969 558,970 550,971 681,931 480,959 371,856 426,954 617,880 284,600 288,806 692,651 195,722 466,684 422,694 349,534 414,664 639,643 682,971 438,955 455,950 404,945 546,978 626,937 480,877 572,918 385,742 570,705 611,721 475,672 433,742 399,733 423,738 317,738 603,747 600,567 670,756 652,765 685,793 682,849 643,721 347,838 459,791 383,779 312,743 451,816 392,744 516,834 465,835 453,787 336,692 294,699 525,663 507,656 433,681 265,687 343,696 604,575 606,980 719,839 617,819 656,924 568,958 577,927 491,1025 460,1025 356,1006 595,1044 704,1038 624,1071 579,1051 433,1077 592,1061 486,1061 647,873 464,725 585,686 573,661 425,683 602,660 615,717 539,637 596,601 273,645 322,583 308,419 353,471 485,54 366,254 356,220 363,269 390,377 408,115 391,412 428,363 418,295 395,279 397,144 403,263 396,311 392,301 388,290 337,279 454,232 420,310 459,178 403,322 346,339 419,184 363,225 404,351 394,196 405,338 374,366 349,245 385,248 392,247 389,157 375,143 389,347 371,366 352,328 383,300 395,160 465,173 425,197 376,255 384,257 429,101 434,209 431,73 648,148 623,136 680,208 663,251 685,244 640,428 540,425 608,414 582,411 550,450 663,338 525,484 662,267 637,396 692,246 536,161 546,164 710,289 609,190 676,257 669,234 666,231 678,215 662,345 675,276 644,286 708,285 650,325 699,242 652,383 656,296 659,377 525,386 719,272 590,193 634,401 524,375 529,395 511,371 587,463 659,129 673,382 581,187 653,335 536,484 634,341 578,122 521,94 506,75 415,306 409,310 593,446 549,376 569,443 558,469 400,283 496,388 377,263 362,274 523,399 609,391 650,220 559,447 674,735 674,739 371,728 320,730 304,979 318,1011 341,412 280,612 302,454 319,650 623,651 360,647 511,650 525,654 569,751 345,936 525,943 365,958 407,974 376,912 318,894 420,932 507,925 460,971 432,967 300,997 307,672 311,458 343,444 193,680 442,818 456,833 302,726 329,756 311,544 266,602 332,403 308,758 424,818 179,688 393,803 610,903 628,872 490,904 478,930 547,1049 417,1058 447,1037 265,699 723,859 611,986 479,1079 349,1060 426,1023 448,1059 229,545 261,718 270,665 282,808 269,785 306,841 287,834 508,878 398,844 530,856 533,832 558,863 567,794 716,826 682,822 567,642 588,574 597,627 600,526 591,647 408,642 615,613 429,622 343,631 631,642 666,727 651,810 534,790 483,753 539,810 388,668 590,554 657,800 657,673 672,880 682,757 644,814 670,638 659,642 565,841 600,584 523,694 553,775 599,514 584,827 476,747 537,683 417,719 461,771 714,763 427,748 360,690 603,686 571,608 361,658 443,650 664,1056 684,1051 609,1055 463,988 494,1025 684,900 622,944 619,966 732,856 307,955 530,1024 716,836 528,1050 705,878 652,950 603,958 509,927 473,976 326,1070 493,1077 676,1043 432,994 320,756 336,930 390,1028 661,950 698,780 664,911 695,973 320,771 352,886 569,891 527,901 491,1046 602,915 558,900 477,854 229,764 299,731 401,786 352,696 330,511 381,839 393,831 442,822 500,1027 576,996 523,1047 570,1031 566,1005 336,1010 332,878 337,1051 420,1035 408,1003 706,1030 679,1020 475,1069 554,948 364,893 580,910 324,574 329,647 254,532 220,749 346,304 476,165 398,434 416,392 404,373 424,406 413,248 436,163 422,404 425,272 379,381 482,28 285,610 295,606 291,665 628,934 597,822 661,234 603,100 444,116 443,188 343,358 445,307 401,421 444,261 395,446 447,82 353,254 441,333 329,451 328,550 311,408 235,789 649,689 270,741 550,891 387,694 319,1014 237,605 433,621 200,610 366,952 307,468 283,507 298,979 334,965 272,486 415,620 257,564 270,767 394,1075 290,1069 592,1039 455,860 373,816 384,881 508,884 635,855 577,857 465,857 401,875 685,969 597,960 498,1059 455,1069 375,970 385,1043 344,848 700,987 365,854 392,657 705,813 710,823 621,593 572,553 620,720 629,168 624,222 477,145 334,273 357,255 346,313 561,81 598,286 600,403 408,344 368,281 358,230 386,401 374,200 388,214 540,181 537,169 519,178 454,89 368,204 699,146 509,160 601,231 563,187 672,186 573,198 592,275 563,232 587,183 437,224 489,170 687,204 473,197 447,182 516,138 439,233 488,114 609,247 551,174 653,278 656,141 590,329 629,305 553,224 688,156 459,136 484,173 456,196 547,66 635,174 537,67 592,137 520,79 607,167 583,92 407,147 553,65 466,195 580,181 658,331 599,373 645,182 544,470 666,159 679,173 666,234 614,408 636,364 564,458 550,397 640,270 654,357 443,387 358,197 604,112 414,133 489,190 621,98 580,130 422,129 388,135 452,97 449,91 570,95 550,143 623,535 674,214 682,217 669,296 677,379 526,65 689,260 649,369 656,339 627,263 573,451 644,102 366,141 472,134 453,171 477,103 438,215 492,72 694,197 638,162 575,249 646,123 640,324 519,406 483,366 579,480 568,812 476,651 534,594 246,678 260,655 671,576 673,864 665,764 617,628 638,898 615,833 612,760 608,789 670,921 667,951 713,716 499,721 541,693 442,741 724,1002 325,635 300,421 305,429 315,681 347,859 541,960 515,965 502,911 381,967 693,747 516,809 618,929 428,727 476,777 630,750 576,753 375,743 336,443 299,447 304,708 715,837 660,756 646,701 606,773 608,908 487,851 381,1039 316,481 215,784 332,571 332,448 353,593 526,646 433,626 329,580 341,476 329,876 482,921 629,778 609,802 634,833 639,767 653,777 646,743 309,728 592,687 489,974 420,940 570,948 434,1024 613,1049 639,1068 392,1070 349,1033 456,1031 726,1074 605,1077 670,1027 349,931 568,933 449,965 540,1037 263,996 537,699 141,730 704,808 540,772 608,876 509,704 578,588 575,587 552,644 597,482 582,476 612,406 590,532 569,606 531,638 579,593 610,365 608,794 715,852 658,704 583,517 433,767 473,738 575,528 416,800 375,846 188,722 495,695 479,681 533,753 399,682 454,733 313,613 642,1002 623,962 388,976 439,1056 280,968 359,1047 459,1075 545,1069 525,984 502,998 670,886 476,733 700,980 532,1013 680,1078 642,1057 396,1059 241,770 231,606 283,635 265,727 256,635 329,442 217,673 335,945 350,970 363,1009 327,1068 490,1062 463,925 459,928 484,784 296,904 357,818 534,822 381,807 310,778 434,841 410,825 511,825 261,852 481,752 364,749 435,882 507,811 573,801 702,1071 488,1074 687,1066 504,1074 377,1052 244,708 210,537 313,995 208,644 598,677 179,670 286,822 561,886 303,825 561,803 537,847 383,823 254,753 347,1033 242,718 316,948 309,860 450,774 497,837 476,849 738,851 619,872 707,837 679,926 713,1057 691,973 544,1006 683,858 546,1049 375,625 387,588 339,557 585,780 543,726 407,723 662,729 676,722 698,745 682,691 719,652 329,608 464,667 589,539 520,679 630,724 614,486 620,512 638,737 617,871 663,967 698,861 677,686 677,720 679,651 673,627 549,626 392,659 509,630 666,652 620,641 586,603 499,633 397,670 629,524 599,562 482,611 706,649 709,678 634,739 613,914 682,915 701,936 570,827 508,722 683,660 626,615 624,501 634,538 598,548 684,158 670,364 565,459 746,891 289,1029 398,1065 449,997 432,1042 339,1023 302,1020 424,983 436,967 513,1032 622,954 241,839 526,886 439,858 678,674 644,887 596,782 583,874 489,1033 528,1052 686,1027 634,817 624,819 350,777 396,776 255,602 238,544 241,682 291,479 245,638 330,647 371,725 210,673 201,703 228,661 310,630 273,630 292,614 290,649 245,554 200,657 329,764 212,626 593,645 472,647 726,823 625,803 539,882 614,860 592,841 733,750 561,748 719,850 546,423 512,396 573,413 652,293 618,113 517,220 530,230 508,208 576,385 654,266 654,240 530,450 644,500 598,534 576,653 512,656 574,651 483,673 315,670 337,465 331,477 430,316 438,212 394,422 454,223 388,274 354,390 420,272 322,238 696,208 663,296 663,279 667,363 658,183 591,270 553,150 461,157 345,334 416,427 422,250 364,150 511,241 481,220 523,230 583,149 511,188 540,202 372,215 374,347 344,243 387,404 437,159 343,309 536,382 371,322 583,383 527,371 488,360 340,311 360,266 391,417 384,396 501,145 376,349 366,136 376,391 365,241 379,362 409,224 386,469 434,195 326,496 403,284 393,391 356,201 534,138 334,152 526,132 390,154 441,90 441,88 343,223 346,925 330,792 363,1023 389,909 363,859 440,897 315,1011 322,794 302,542 397,630 457,635 269,536 286,675 183,722 254,770 194,642 273,808 305,571 293,938 369,1042 295,914 687,930 373,904 353,876 463,924 414,925 481,937 488,1008 453,969 691,1061 573,1063 353,1065 439,1039 396,1078 294,1034 429,920 624,877 603,792 581,152 624,319 620,289 572,226 576,218 488,454 629,308 598,98 547,103 487,103 642,119 497,385 557,390 688,143 433,94 397,151 346,237 419,94 507,115 615,567 676,710 634,697 700,576 686,680 727,828 707,618 677,573 682,729 414,827 476,804 361,762 389,778 733,978 416,1077 342,1051 380,1032 416,1056 348,892 431,1071 754,920 402,860 387,879 380,802 397,921 654,981 358,948 403,947 391,619 309,700 386,668 333,591 342,831 389,923 429,917 296,995 330,965 279,947 356,998 361,983 592,1048 459,1014 556,1043 627,964 690,884 677,594 690,581 687,703 707,751 742,872 579,814 371,630 316,420 440,827 699,302 645,163 598,282 592,188 492,450 671,95 439,99 434,128 357,263 476,54 615,276 512,121 523,232 528,156 488,70 525,155 368,154 392,191 493,167 641,329 501,452 679,516 749,891 296,703 410,699 673,940 305,976 221,725 204,774 612,926 346,1004 427,946 652,1079 343,945 363,958 436,958 445,864 438,935 376,754 526,810 579,837 395,845 244,613 338,895 410,916 439,894 375,817 330,775 561,566 438,764 342,739 503,762 328,754 204,728 255,769 554,927 483,953 592,923 327,989 667,746 411,735 456,708 483,714 208,692 241,823 361,657 315,444 282,550 202,756 212,503 259,528 182,536 677,797 606,784 634,746 661,993 394,1006 322,1002 482,992 426,997 369,1074 288,975 325,1019 422,1057 368,985 384,1009 676,989 363,1006 278,686 311,414 288,837 187,688 222,586 217,559 237,566 200,594 236,675 582,603 632,611 684,734 677,890 699,997 679,1060 584,1025 714,1061 291,1070 689,969 671,1064 480,955 450,953 690,878 683,885 714,788 644,606 703,645 677,616 734,837 705,708 581,576 622,615 506,747 559,824 427,652 596,713 597,764 558,699 547,768 669,850 621,868 707,798 700,589 662,987 373,1005 504,1021 622,920 381,780 470,835 589,851 581,994 673,901 724,812 661,1029 586,1027 579,564 554,695 661,715 224,652 191,554 235,635 302,857 232,907 278,725 288,857 220,712 330,1072 336,986 675,961 528,989 717,1057 239,908 188,534 197,603 269,822 205,630 224,484 197,595 231,693 594,857 416,868 560,626 726,987 639,1075 595,350 594,274 597,411 371,334 357,322 448,351 405,404 513,63 369,147 530,75 345,159 458,280 370,223 418,196 419,399 422,311 354,442 316,438 239,618 223,566 352,750 463,801 464,843 194,801 196,612 208,737 367,1066 566,1079 731,1078 287,1026 310,782 512,814 601,851 575,409 638,320 620,378 610,185 633,161 569,271 524,130 633,149 513,525 669,129 651,464 543,757 638,495 682,175 688,219 626,393 639,395 600,378 644,327 591,377 572,372 576,354 500,516 710,88 613,617 741,931 701,503 728,1002 619,801 622,803 613,615 619,628 645,815 567,975 552,942 580,975 703,1055 660,656 540,1000 715,1039 641,1041 594,1056 592,1052 679,1028 590,994 669,1035 730,617 700,930 699,821 601,569 689,282 666,236 687,293 654,379 563,565 558,584 515,886 304,850 253,873 339,898 334,853 564,716 338,714 716,727 468,661 349,554 216,669 205,657 348,1063 310,741 236,577 295,579 322,567 353,653 607,813 530,749 592,792 589,804 479,843 318,791 306,629 279,573 582,893 684,881 580,883 693,902 733,872 696,785 721,553 342,955 279,682 334,828 295,721 225,756 314,502 430,647 551,618 602,536 601,247 589,339 544,312 515,467 544,413 460,393 645,403 513,451 485,335 558,468 657,387 708,233 616,171 651,197 453,184 617,132 578,92 603,122 468,128 353,307 354,238 325,289 393,143 380,162 354,193 502,144 371,169 610,155 606,180 615,235 651,287 652,154 411,134 431,289 490,145 358,266 484,115 413,257 403,195 546,20 451,143 506,59 495,84 383,140 343,337 476,383 628,408 527,377 552,375 533,295 563,495 346,239 442,141 446,141 424,268 436,381 293,448 448,327 548,295 557,359 522,381 519,296 308,435 498,341 563,268 543,341 583,385 394,343 330,270 451,161 391,384 425,390 348,271 352,239 355,217 424,192 655,134 367,158 521,94 404,96 509,85 338,505 240,600 276,537 224,670 577,645 264,635 358,524 372,719 600,525 628,901 555,839 564,755 329,633 330,562 569,695 508,737 570,661 449,658 490,723 437,648 495,702 466,690 485,679 554,685 736,646 634,631 724,645 644,628 253,766 415,115 462,60 202,859 348,1067 266,979 188,802 352,1058 310,1032 336,495 382,952 658,1058 640,1056 672,1033 411,1067 338,414 317,437 321,587 403,592 269,588 390,712 323,644 314,564 192,517 262,559 289,531 288,502 287,582 305,682 427,677 294,501 295,592 305,548 368,329 399,270 410,275 382,273 395,220 643,153 493,115 479,106 551,158 636,167 600,104 619,116 556,95 495,255 559,196 491,229 573,190 475,205 595,315 522,338 472,442 566,481 452,324 391,432 413,365 404,215 432,216 597,151 649,276 609,174 478,81 535,101 574,294 530,111 649,176 680,188 561,618 588,730 623,503 604,602 565,647 661,797 633,957 213,931 579,952 356,939 561,705 542,719 499,664 663,703 664,576 724,740 305,718 197,466 201,881 189,516 264,486 210,726 631,560 593,496 492,367 519,382 628,105 548,98 518,54 508,209 542,217 490,245 588,174 625,189 644,263 706,202 621,199 554,176 608,329 541,437 417,295 481,362 601,525 554,783 430,1033 309,1049 705,1050 646,968 683,1043 671,1018 610,1061 416,1038 231,921 413,982 407,887 478,846 385,859 271,812 244,751 745,786 539,773 602,823 424,805 689,837 330,928 324,956 466,998 366,964 334,962 238,700 283,554 243,547 192,527 269,522 215,480 236,742 306,418 417,871 710,238 597,491 691,242 687,218 604,96 708,259 686,284 649,342 539,453 573,340 576,360 509,311 619,207 677,220 633,130" fill="none" stroke="black" stroke-width="1.25"/>
</svg>
  