<svg viewBox="0 0 1080 1080" xmlns="http://www.w3.org/2000/svg">
  <polyline points="540,540 872,987 583,1013 285,1000 359,995 765,1016 770,716 665,1073 390,847 283,811 715,1072 515,997 305,875 828,1052 567,1035 810,904 869,927 874,964 349,1020 814,850 701,891 762,1047 560,955 535,1014 340,948 855,875 632,994 675,948 434,997 833,824 302,970 277,943 337,1019 398,1008 480,964 313,1005 490,1046 793,801 651,1000 805,863 597,946 529,950 377,916 843,975 340,1003 402,907 725,968 391,861 798,941 271,959 453,877 285,731 297,994 534,983 292,803 348,1067 301,691 424,857 328,809 377,993 339,681 319,786 371,827 359,809 325,679 293,684 360,747 367,818 256,967 276,1066 284,971 278,981 324,1059 670,1068 260,1076 286,1044 890,1079 357,1075 456,1050 508,1060 356,1024 851,1021 830,1005 859,1063 845,1006 808,696 870,929 778,645 863,893 830,896 828,895 678,1036 887,1043 210,1062 621,1043 644,1073 767,671 782,820 825,764 843,833 746,666 798,684 852,970 802,1032 869,1056 525,1034 435,1073 825,1066 871,909 799,743 821,763 751,649 820,766 791,732 871,892 823,904 784,666 766,715 754,699 752,769 812,881 827,968 504,889 535,897 452,895 536,947 509,934 793,1019 721,1006 753,986 756,728 729,838 743,792 695,861 676,889 600,918 764,792 661,940 894,901 328,906 497,955 724,847 558,897 657,868 684,859 698,854 730,800 828,937 797,993 754,989 867,1013 826,937 695,906 654,942 709,835 768,808 524,953 370,979 466,957 462,967 418,968 466,939 317,911 352,915 289,925 243,1070 313,741 325,866 413,907 556,899 675,932 840,850 854,944 843,901 751,1064 840,886 882,1010 873,966 865,1013 809,992 783,808 577,911 315,804 402,860 365,755 359,796 269,942 305,714 268,1037 872,1027 883,1003 773,977 772,958 262,1073 348,1072 193,1072 350,851 461,860 310,914 295,897 333,1035 240,1014 297,760 320,679 307,651 292,686 301,920 342,1072 311,923 360,933 272,976 381,967 264,988 408,1049 459,997 407,1072 545,978 661,957 630,957 584,1011 484,1043 401,1041 293,661 419,845 289,857 334,843 324,869 296,1078 344,922 318,790 325,824 305,633 286,794 288,1072 347,1017 383,1066 555,1065 268,995 343,969 283,856 306,920 304,909 327,1021 243,986 294,799 315,812 633,1014 676,1015 553,1013 389,1048 665,1033 804,1038 544,953 499,982 587,955 273,996 235,1050 266,1021 452,944 528,992 557,978 481,977 677,901 861,879 751,688 738,617 811,811 763,828 791,721 774,838 752,685 751,694 788,805 757,642 828,907 591,1036 684,1011 406,1023 473,1009 454,1034 942,1062 349,872 370,879 373,814 387,875 374,786 405,987 417,939 625,1008 634,971 739,934 566,996 637,967 839,1015 773,1002 531,994 718,952 451,875 584,918 464,906 487,911 469,909 688,1050 359,843 412,905 393,846 364,791 421,899 324,731 329,643 368,945 335,833 355,723 297,833 603,933 563,924 359,850 340,644 331,695 342,800 334,595 349,1067 797,1064 662,1052 399,1068 890,1074 213,1068 230,1078 752,1069 749,1077 817,1070 768,1042 884,1077 780,1063 665,1048 229,1075 309,752 293,1068 352,1065 525,1075 745,1011 745,1077 640,1070 768,911 819,769 689,1021 848,825 713,976 708,971 864,803 539,929 451,889 707,885 841,833 825,1006 874,1029 867,925 639,939 611,922 814,837 751,886 656,873 661,887 845,819 892,997 738,854 772,934 821,806 720,910 284,956 338,711 356,901 405,900 347,1012 526,988 274,1036 432,984 369,1041 196,1035 686,1026 416,1028 202,1050 275,1010 774,1019 844,979 423,1020 368,855 415,1010 428,997 436,1004 547,984 440,1032 689,1026 766,617 819,744 781,632 786,814 788,835 757,583 783,765 900,993 826,756 789,634 719,924 861,1003 712,970 330,1000 600,977 315,1004 191,1071 470,1004 847,980 705,997 883,951 802,661 753,659 772,767 820,896 743,696 814,1072 851,1055 871,949 870,963 717,911 790,666 789,638 772,629 751,652 739,641 735,627 838,922 833,1010 827,1024 811,974 809,973 790,826 802,777 746,741 696,1049 826,1064 310,882 359,974 348,904 301,875 630,945 624,941 827,910 777,850 285,1021 345,877 681,952 717,902 565,948 644,923 514,964 357,994 734,840 599,920 515,923 278,705 349,662 286,680 296,837 331,1002 330,794 331,767 295,702 371,979 353,910 302,835 263,937 311,825 288,662 278,1004 321,621 321,933 448,951 314,986 297,933 243,1079 186,1009 526,943 381,817 351,747 372,931 488,942 402,972 658,927 793,914 820,957 757,963 785,945 285,930 282,710 327,932 291,638 315,878 284,652 358,711 375,853 579,897 757,896 823,891 781,615 820,819 792,720 654,536 742,652 764,778 727,790 812,747 784,764 673,533 653,595 696,381 651,667 739,64 681,682 690,367 651,670 704,379 681,610 686,538 667,568 825,803 730,797 663,890 664,896 689,924 429,860 385,863 487,924 299,838 692,917 628,937 756,898 763,892 764,781 731,915 744,861 793,751 797,781 785,684 825,811 876,971 226,956 860,1037 831,1032 846,1029 910,1039 605,1016 927,1033 508,1043 715,1071 773,736 725,637 747,676 758,969 870,1063 482,1059 817,1063 765,746 706,835 768,851 873,925 866,1051 839,924 699,1017 888,983 834,968 784,771 867,1050 603,1036 754,1043 767,1014 828,908 824,825 703,1032 706,1048 852,884 858,1036 828,829 895,1002 823,918 737,1035 177,1073 931,1075 225,968 904,1057 849,1043 855,887 834,1066 828,774 773,629 821,959 378,948 510,998 326,1057 958,1068 297,1039 170,1075 440,1023 856,928 762,983 852,839 733,984 842,800 856,920 855,993 853,946 861,927 839,966 881,925 804,970 865,911 849,969 778,934 769,972 840,912 789,945 512,888 874,969 771,946 884,940 191,1007 304,1060 610,1063 274,1065 291,1054 198,1070 493,1016 577,1026 574,1005 734,857 589,912 319,880 204,1058 514,1044 147,1061 850,883 709,917 558,971 325,998 399,420 380,569 420,451 386,601 419,482 425,529 393,448 438,524 390,534 394,460 430,472 378,765 238,1038 287,915 520,911 291,856 425,463 384,613 399,378 378,577 418,529 401,486 398,422 421,505 381,374 392,590 428,459 376,572 491,520 334,472 438,512 375,602 426,532 411,508 417,549 403,517 377,459 421,550 385,405 408,611 408,400 399,712 430,423 371,592 233,1016 544,1042 299,1023 337,711 330,837 436,914 277,998 252,1053 383,1021 407,1018 383,1031 480,989 430,1001 310,598 491,1060 310,653 427,865 407,933 411,912 336,673 478,1048 277,1056 247,1045 310,628 341,818 476,898 604,879 857,804 577,884 651,867 600,892 381,868 369,789 396,952 419,899 368,879 313,718 254,968 279,920 235,984 270,1066 397,1033 728,1052 421,838 441,857 398,846 280,792 380,824 609,1015 729,966 335,831 321,711 528,1002 828,1011 390,854 555,915 574,910 244,955 879,1028 661,989 873,975 867,1027 880,958 885,950 868,1033 844,922 212,1075 191,995 618,1022 722,875 255,941 279,1024 262,988 305,1051 590,1016 332,1004 656,1012 280,884 742,995 809,992 177,1030 231,1045 304,1037 474,1038 609,1031 807,661 828,790 600,921 625,991 737,801 603,942 571,942 190,942 867,939 849,1031 643,959 341,940 408,918 463,912 266,875 539,1000 328,917 323,621 328,899 350,1046 395,952 299,929 662,927 827,800 670,400 672,493 679,350 711,628 776,651 721,612 794,732 667,606 675,638 720,509 802,781 639,456 863,860 651,894 879,869 657,429 679,470 692,60 402,16 575,26 643,90 722,263 690,201 734,231 723,213 701,274 704,198 734,204 686,220 792,271 645,109 683,122 607,24 718,158 689,290 771,174 674,245 701,162 622,48 731,243 655,179 746,214 742,431 693,135 593,50 654,94 711,184 710,543 699,486 670,367 726,459 676,373 691,524 723,546 640,479 696,427 731,386 680,422 702,580 688,85 488,2 687,25 529,1 768,163 670,283 784,206 669,617 836,703 508,1044 492,1043 784,750 817,880 574,956 149,1006 389,954 302,952 299,966 843,1079 520,1077 861,809 174,1001 440,954 271,983 356,850 345,957 292,861 296,889 287,801 319,587 428,994 965,1012 545,1008 377,784 428,852 559,905 793,965 835,768 842,1008 561,970 151,983 231,1064 458,1072 966,1042 468,875 282,764 358,584 314,724 398,615 376,488 396,422 302,822 287,745 304,1064 472,1056 602,1055 814,1056 652,1054 207,1016 214,1043 381,814 452,871 449,851 379,816 251,990 752,868 750,1013 624,1005 752,896 746,697 744,996 895,1002 866,1077 891,1048 846,1071 399,1066 320,519 432,576 306,692 295,760 288,741 379,602 280,692 423,567 376,504 368,366 427,667 351,166 391,81 484,13 301,152 467,3 391,48 311,854 274,954 268,958 366,585 363,132 380,70 347,281 395,8 591,11 687,131 722,176 701,644 640,586 820,814 609,964 824,741 486,1002 711,949 904,993 911,951 907,994 825,846 810,792 822,884 814,767 664,873 807,760 726,825 785,854 749,863 839,1060 883,987 888,1006 882,997 885,920 856,957 902,1020 186,1029 268,1020 300,971 320,805 315,897 862,992 872,984 788,985 792,750 712,872 737,850 777,832 777,878 729,825 417,991 837,827 858,910 422,987 778,927 642,1038 588,1054 827,827 580,895 711,915 860,964 672,436 661,585 686,369 691,579 682,583 654,509 685,513 655,635 755,285 626,764 723,207 751,254 621,68 792,309 304,220 486,228 378,222 468,234 398,284 353,165 436,2 343,157 400,650 393,477 412,433 384,545 397,559 326,91 394,667 335,74 521,44 406,11 666,55 738,210 614,18 570,25 477,15 455,21 646,45 384,24 594,4 400,1 360,257 323,119 459,707 321,87 408,645 380,566 429,593 334,233 434,267 494,270 396,218 458,283 389,195 355,910 322,731 284,675 281,716 347,781 450,921 298,927 287,617 294,785 254,1004 277,1069 233,1012 315,1007 318,627 252,696 442,582 317,650 260,672 353,623 413,630 357,596 291,966 284,625 386,970 301,665 377,1046 777,1023 376,1045 387,1033 365,852 298,644 334,622 268,943 310,728 492,975 802,965 852,1000 771,1024 890,1024 690,1000 347,824 311,865 283,907 490,872 264,974 255,1032 185,1017 354,915 262,888 426,954 362,986 645,1058 616,1062 897,1038 275,1011 289,676 330,592 278,739 357,832 317,725 326,805 388,900 417,924 469,986 633,970 614,957 445,1002 755,973 592,985 578,970 785,1044 796,1041 880,1036 324,1057 345,974 180,1049 603,1028 279,1047 215,1057 299,1040 384,1011 457,999 355,743 314,990 247,1060 224,1011 569,927 482,947 287,833 552,964 616,974 874,1060 212,1030 323,1037 340,998 525,963 629,985 516,1006 399,832 424,898 314,870 297,1002 162,1040 388,1047 359,1073 217,1050 352,1036 53,1070 929,1033 487,1047 744,1026 586,1022 518,1017 190,1000 294,1022 326,1058 828,1040 673,1052 865,1051 884,983 893,1023 752,502 785,739 672,399 661,525 667,485 673,445 470,430 497,430 422,466 299,691 419,853 274,615 485,940 335,727 278,617 429,852 361,786 338,767 625,991 797,873 819,1029 917,1055 859,1070 691,500 667,465 685,614 791,617 841,871 852,876 869,1006 883,1005 722,730 837,1079 714,1064 762,546 904,1077 850,1079 498,1079 339,1068 390,1077 1034,1074 66,1076 673,1055 561,1061 751,757 723,948 786,567 721,824 807,793 737,769 779,576 721,692 787,583 763,604 793,706 672,518 711,401 691,429 674,377 717,405 755,294 661,657 802,594 735,661 770,573 746,711 793,660 817,768 825,918 822,864 755,863 719,907 809,813 773,651 772,677 892,1028 758,907 778,924 844,847 758,936 843,975 674,899 691,913 804,853 579,941 291,949 634,905 713,868 747,975 533,1005 723,968 850,975 356,898 489,876 361,922 306,983 428,852 338,923 324,892 657,943 731,882 636,918 901,850 382,989 753,839 561,911 278,926 263,907 367,928 888,904 735,946 823,955 650,472 740,604 883,915 717,911 806,782 765,1049 892,1073 826,1061 793,661 783,931 720,898 411,890 344,985 680,871 953,970 423,914 475,923 690,870 318,974 245,966 245,962 332,839 344,614 465,557 562,525 355,649 438,548 601,543 579,513 267,691 528,534 403,535 347,59 666,22 719,408 656,429 675,629 711,625 683,622 654,476 514,563 406,489 431,677 345,441 689,430 722,470 746,337 644,500 283,677 699,470 713,304 697,178 712,277 741,206 581,4 789,300 692,143 740,496 651,564 670,491 713,76 678,411 836,759 728,532 753,302 713,386 715,574 669,594 699,371 695,75 698,690 696,107 732,452 747,343 742,372 706,423 680,441 706,139 623,40 638,97 642,106 681,87 605,55 679,82 679,255 580,250 586,238 580,324 594,236 540,254 608,267 535,208 574,300 579,196 632,313 567,227 651,211 546,250 550,261 582,196 528,345 547,398 466,570 764,610 653,583 673,582 638,683 703,560 637,610 744,631 672,586 674,583 684,538 907,994 733,833 809,945 867,962 800,961 623,959 612,964 566,932 771,1038 730,965 163,1053 478,975 327,996 446,1005 242,1050 117,982 992,1022 692,1008 872,1075 835,1049 897,984 759,988 933,1021 426,970 344,805 340,794 407,1039 267,1008 161,1031 218,1017 153,986 484,1007 351,719 359,716 356,143 356,156 358,114 387,86 482,42 407,61 438,43 451,63 413,23 397,102 585,610 441,243 432,224 705,274 371,209 490,251 426,301 342,207 436,252 621,263 502,184 344,314 387,626 416,645 357,632 424,462 390,638 326,612 296,1005 337,496 374,506 358,549 382,412 443,506 343,365 387,32 488,59 363,28 438,90 355,98 326,193 353,256 350,124 470,5 636,30 343,49 375,585 358,451 345,568 569,542 413,530 562,331 367,626 369,492 383,448 398,469 347,472 442,477 383,562 427,573 377,575 289,669 433,572 357,386 316,17 352,327 463,243 462,284 425,286 406,238 441,210 460,301 429,223 624,228 258,275 498,236 314,233 709,216 727,181 564,23 449,10 495,14 296,172 469,291 360,223 532,278 758,238 711,224 715,193 701,258 694,167 661,81 445,0 355,126 376,280 794,158 259,328 834,147 476,269 360,245 510,292 297,189 486,241 411,261 382,284 418,256 679,254 781,237 325,273 541,234 403,253 495,247 383,263 673,209 778,338 686,64 637,0 378,59 527,51 410,13 398,29 553,42 575,10 350,30 362,169 381,302 351,131 446,753 770,302 700,393 608,748 703,443 279,739 297,697 697,460 668,552 751,631 695,552 757,409 685,576 696,668 777,614 764,671 785,597 864,906 805,656 823,790 675,899 673,886 729,929 748,928 580,922 369,866 418,852 684,939 803,738 722,633 729,669 710,628 916,1010 856,933 769,505 726,1001 770,621 755,808 800,795 797,729 668,406 686,379 638,663 719,369 690,646 670,415 677,477 674,691 744,676 630,514 796,659 692,683 794,598 843,914 800,888 849,829 881,927 796,637 662,962 658,945 825,658 595,617 412,229 538,492 355,83 375,250 344,176 344,140 427,56 422,17 297,339 555,602 342,424 552,619 382,536 381,524 377,391 374,446 333,539 512,538 537,360 342,457 322,713 276,921 272,959 785,953 732,948 676,944 705,922 760,703 782,930 691,1038 395,1024 498,997 187,1077 313,872 373,1004 285,705 279,679 373,967 608,969 820,1031 773,1008 800,986 741,600 738,625 831,1050 166,996 484,944 554,974 329,899 865,899 880,930 743,797 825,965 662,593 792,716 691,910 757,891 868,986 688,836 735,827 587,903 349,851 309,884 283,1016 251,1066 899,1043 880,1043 773,1064 960,1077 688,1056 972,1039 397,1072 790,1056 671,1074 266,1078 905,1076 594,1055 949,1068 618,1074 654,1071 158,997 591,978 719,1024 843,880 829,1077 949,1074 418,1050 250,953 345,584 394,414 462,566 533,607 323,649 279,1063 669,1059 224,1064 373,473 360,366 325,1005 260,972 302,811 253,1043 300,850 490,901 265,912 320,669 317,666 353,576 232,1041 256,1027 365,1035 181,1057 382,1078 12,1075 1065,1060 121,1050 489,1067 420,1072 927,1068 241,1070 187,1051 429,1064 910,1069 774,1067 877,1072 871,822 327,1032 494,871 321,841 650,954 904,1057 850,1047 602,866 620,1004 819,987 957,1004 57,1007 1072,1033 113,1004 376,1022 608,1017 576,1030 524,1043 864,977 862,979 867,1023 856,958 860,1055 656,997 723,952 677,997 740,732 692,954 721,902 168,1046 567,899 669,985 605,940 345,936 368,1006 342,1021 682,889 813,773 890,991 638,1022 885,879 678,857 373,969 378,804 677,1022 553,1014 727,1033 714,1030 889,1052 886,1024 833,1052 706,880 766,811 864,984 890,927 869,939 917,1012 907,963 908,951 873,1062 839,832 822,993 675,152 718,184 694,242 771,230 433,289 718,681 686,513 391,627 286,656 306,662 445,624 540,337 474,457 507,390 525,379 446,359 527,479 481,376 561,453 504,402 582,444 259,427 734,519 825,794 684,384 629,606 668,484 692,92 761,392 716,117 702,182 740,205 752,300 752,378 727,362 755,293 736,629 699,209 674,141 683,196 697,219 671,201 721,304 661,138 699,188 647,642 768,616 735,559 762,195 726,401 719,556 764,247 704,227 777,326 613,12 706,213 673,168 744,446 652,44 451,13 378,68 420,85 534,26 350,85 508,44 343,0 452,73 497,597 641,503 474,612 409,455 413,704 288,665 419,468 425,553 358,618 390,474 328,692 417,550 419,563 384,638 355,647 596,287 407,253 692,268 526,250 729,244 680,111 580,27 672,97 426,555 419,462 353,662 397,432 390,595 520,553 636,505 554,564 391,465 467,588 631,483 597,540 420,517 533,360 549,445 524,382 391,509 419,635 329,682 404,701 381,501 433,695 357,188 385,711 335,668 414,890 433,837 256,737 551,916 562,1004 524,981 761,1034 792,1036 709,1031 231,1054 434,501 583,449 432,405 689,658 728,437 610,641 702,630 721,490 678,521 728,592 715,532 676,504 779,656 717,632 494,592 524,618 716,650 728,660 818,897 704,993 872,1063 837,991 218,1068 213,1017 144,945 829,908 792,652 651,475 681,679 701,689 749,271 708,253 737,210 595,245 587,290 557,272 615,280 557,214 589,233 560,204 588,286 755,242 686,259 714,113 762,327 689,425 733,369 630,503 695,621 673,411 657,473 688,536 828,826 348,940 370,812 317,779 664,1019 280,891 288,1010 290,882 410,807 314,803 331,787 588,961" fill="none" stroke="black" stroke-width="1.25"/>
</svg>
  