<svg viewBox="0 0 1080 1080" xmlns="http://www.w3.org/2000/svg">
  <polyline points="540,540 212,992 314,824 378,1010 332,901 282,1039 316,945 267,905 332,1039 400,1072 271,999 341,1036 257,979 247,952 269,904 332,906 347,980 240,1028 324,958 425,1067 340,1067 350,979 261,1073 427,1067 306,941 295,831 228,827 291,880 284,878 294,915 312,924 383,1037 295,1076 231,1024 227,1050 277,915 386,1053 261,868 240,872 281,985 308,787 310,790 297,989 310,781 245,1070 326,920 394,1044 417,1070 211,1066 302,963 323,840 251,1010 302,1053 383,1019 315,901 296,832 276,826 267,839 267,814 304,793 319,806 250,885 250,915 237,845 339,973 270,974 436,985 240,959 237,1041 245,949 233,999 366,1060 256,1067 383,1073 265,1040 363,1036 258,812 333,933 287,868 353,1045 311,823 195,878 369,980 322,845 357,1015 234,1035 250,804 336,757 212,836 330,805 323,911 319,889 352,960 324,884 230,1002 251,907 260,939 255,936 308,1005 409,1067 255,938 242,1047 287,890 234,843 247,841 273,776 347,880 299,874 411,1048 258,798 302,778 223,851 354,950 305,814 250,858 340,1029 279,882 306,762 349,959 395,1070 298,985 232,850 288,773 267,899 235,829 259,956 241,927 301,951 239,1057 247,945 342,911 352,1022 270,1032 350,988 238,998 399,1006 301,1002 358,1046 307,993 343,974 284,1060 329,1055 199,855 293,790 297,824 324,877 265,822 318,783 325,864 252,794 256,955 290,1035 253,980 230,826 351,914 339,889 232,1004 237,1011 266,1071 273,986 266,1070 372,1004 332,1059 217,963 430,1038 186,1065 417,1076 444,1059 179,996 334,1058 237,1059 345,1053 305,1034 319,1077 225,1045 357,1046 222,981 274,850 232,820 250,841 273,859 266,1070 210,1055 358,1026 256,944 231,838 279,964 297,969 259,924 363,904 254,857 352,844 240,838 295,815 280,823 293,1059 286,1041 231,1068 246,1070 312,1016 227,1050 224,1067 477,1079 202,972 345,981 258,1034 295,906 252,1057 444,1043 235,954 247,836 303,859 230,818 283,847 338,752 304,849 312,163 488,125 634,206 465,129 649,181 460,167 645,158 349,140 543,123 512,183 430,81 469,124 512,138 475,140 533,94 469,170 626,177 362,108 580,191 484,46 654,225 471,57 425,212 396,179 301,495 289,510 364,286 331,353 340,456 304,215 334,445 297,445 363,619 329,538 263,415 407,188 618,133 421,131 613,142 533,192 533,76 663,227 543,173 448,181 502,151 492,131 482,176 558,121 646,205 499,104 454,161 602,116 522,116 494,159 449,127 436,86 324,419 310,477 423,147 309,315 329,449 405,163 307,379 387,689 346,538 375,634 246,322 332,209 544,91 270,284 270,364 517,414 223,356 527,49 630,55 289,169 290,450 389,195 400,200 340,375 453,399 398,391 486,398 359,431 625,381 638,424 637,346 895,1057 745,1052 814,972 794,775 905,1000 805,1030 887,978 853,997 868,921 880,976 852,881 806,816 786,1066 811,913 845,960 870,961 830,1039 795,963 803,854 790,890 867,971 882,1047 795,959 831,868 763,840 909,1045 804,1014 867,1016 787,813 850,934 874,1066 858,883 785,923 840,964 848,1012 774,860 861,838 880,906 862,893 882,1004 796,807 860,890 850,851 891,972 854,875 849,810 835,977 846,973 833,958 730,1078 888,1076 889,1076 777,920 803,1047 793,996 809,1071 862,897 823,968 838,966 779,1021 840,942 794,1027 874,1066 798,1045 861,907 851,798 864,862 801,806 894,1072 738,1074 743,1052 891,773 786,981 802,883 831,916 886,948 789,874 895,1001 838,812 823,839 892,1015 833,769 798,1015 839,1003 814,941 853,984 789,831 833,864 922,1041 759,981 893,974 875,992 868,840 848,900 843,905 818,789 806,901 867,922 796,754 781,1022 778,1038 859,1074 735,1032 863,978 752,1021 810,1001 774,1074 773,1009 782,970 795,877 783,772 808,888 809,872 829,795 876,1058 942,1074 740,997 953,1042 751,1064 778,1015 780,988 906,1014 821,1061 778,1029 747,1062 974,1036 772,1070 884,1059 789,1055 928,1069 786,1023 795,770 752,1067 902,1070 806,940 833,1045 827,868 895,948 912,1031 783,805 844,812 927,1075 785,992 791,1016 898,1052 886,1025 789,897 779,885 807,987 764,1045 895,1025 758,1075 850,1024 760,1022 771,1039 791,925 845,827 831,801 832,910 816,943 801,906 808,913 826,946 770,996 751,1059 867,1061 909,993 829,779 908,985 868,995 814,999 816,774 904,1065 880,1060 726,210 769,454 838,412 793,471 823,331 828,428 837,393 713,369 570,424 604,375 656,366 615,441 687,332 635,140 585,159 825,495 523,49 702,271 703,313 738,315 773,459 754,366 798,439 765,565 831,396 730,403 849,455 699,335 812,417 688,311 785,275 684,243 809,467 758,380 784,383 816,412 822,461 844,369 843,406 744,453 821,408 837,339 755,596 822,568 766,382 678,327 810,274 583,218 575,134 527,87 493,32 324,341 332,337 275,461 270,411 272,286 256,366 315,172 529,185 515,181 416,199 456,188 448,195 358,188 553,34 585,62 299,215 255,387 714,399 634,410 376,432 227,350 470,77 589,62 711,112 522,50 648,67 628,95 285,265 273,312 366,81 281,298 313,245 266,349 497,436 441,470 488,367 358,482 518,420 251,366 351,141 233,344 282,483 310,478 234,365 352,603 299,576 306,185 290,307 310,440 383,200 359,212 711,120 463,197 626,70 518,58 557,41 493,47 709,280 762,280 578,164 454,202 432,94 677,72 267,247 301,520 359,343 455,469 462,404 488,497 269,299 352,591 324,335 251,449 288,411 345,510 378,671 384,642 228,1015 433,1059 361,1070 203,1057 400,1028 307,788 232,810 296,815 212,987 311,1077 427,1042 298,1074 404,1044 350,1004 255,773 385,1059 287,861 257,898 264,900 234,856 269,902 237,788 427,942 284,911 327,755 306,877 309,844 308,907 280,982 332,949 294,878 301,1051 359,905 358,1047 242,815 350,912 322,1011 292,893 393,877 237,829 342,896 331,856 310,738 241,919 231,902 256,790 299,824 252,782 315,849 229,1042 239,1067 264,1039 239,919 229,801 352,847 271,903 241,1008 291,1070 408,1059 326,863 352,48 796,240 794,185 763,308 768,235 673,170 542,170 715,239 872,363 732,578 928,315 558,397 658,398 305,428 306,317 330,267 438,83 467,149 633,191 628,120 582,132 325,201 385,94 633,158 617,206 462,59 500,202 557,106 445,123 666,223 578,104 577,113 504,129 476,106 540,131 711,285 512,105 419,151 513,95 496,103 236,404 500,452 466,456 473,400 477,456 496,464 396,397 236,390 265,469 322,487 336,627 473,366 483,443 405,425 798,384 561,426 669,434 572,449 654,348 866,397 814,439 789,599 792,504 811,581 788,538 768,601 813,488 784,259 735,676 888,285 801,508 738,594 834,375 734,661 754,610 755,494 771,597 715,683 818,486 719,689 774,500 773,260 691,277 737,299 769,200 584,450 650,420 654,414 583,444 743,220 748,255 699,242 788,364 836,382 857,449 851,335 760,619 800,537 763,555 795,542 751,617 766,476 745,369 660,240 648,289 829,461 834,414 750,571 749,664 834,394 529,85 677,231 317,132 378,89 344,387 339,619 273,370 262,350 295,432 282,523 331,457 247,412 467,381 342,424 380,74 397,188 293,464 242,349 299,237 323,181 263,289 335,333 314,408 401,119 545,60 317,128 448,174 495,120 469,70 372,201 399,157 533,52 497,145 342,213 447,202 487,166 428,211 532,184 732,201 560,11 781,259 728,310 772,175 317,141 636,178 667,282 650,167 736,286 584,135 493,45 354,264 455,87 469,68 610,54 587,42 634,114 372,127 467,153 346,147 373,95 335,107 573,87 441,104 383,269 467,64 435,92 363,366 505,453 426,489 465,434 473,433 506,444 365,480 599,410 634,379 570,385 885,332 614,375 652,373 524,385 231,451 338,484 255,330 257,346 412,249 275,332 374,213 217,362 263,321 481,148 426,110 650,90 560,23 719,120 644,17 845,437 725,371 691,310 595,190 411,187 353,388 502,447 335,393 506,460 496,413 489,464 452,467 426,488 500,411 323,477 324,475 267,542 360,429 898,315 256,474 295,510 307,495 446,414 514,458 404,456 426,378 432,436 445,483 433,422 508,439 393,367 409,412 489,471 437,507 550,860 309,581 342,615 345,462 334,218 337,371 252,329 241,465 322,343 312,138 293,532 340,485 290,341 536,96 499,140 539,179 540,75 560,98 764,206 797,250 741,299 818,475 839,420 799,482 767,426 787,367 806,417 789,429 791,363 797,392 696,190 714,225 699,198 727,354 818,234 534,125 594,114 769,219 775,284 749,295 747,250 774,330 717,213 773,281 714,220 686,180 788,295 735,327 694,259 786,296 589,471 643,408 640,384 247,453 323,472 450,942 337,479 353,535 328,611 341,600 322,366 329,514 276,487 317,499 273,464 262,446 283,461 285,186 647,134 649,201 636,50 514,24 662,78 519,35 687,66 676,64 624,76 670,43 559,68 512,30 603,57 503,9 684,113 720,99 676,77 598,28 786,177 620,447 618,465 611,432 581,374 687,406 560,386 661,405 704,409 583,425 709,401 600,472 634,369 623,471 783,164 766,237 818,190 581,426 883,393 234,447 380,402 441,501 299,617 481,465 557,880 498,540 567,823 447,743 218,1069 344,919 273,1034 283,1040 332,873 338,843 271,781 371,905 271,849 252,895 292,799 282,847 232,972 231,1019 274,1038 233,780 281,966 294,1039 244,855 284,970 320,843 316,911 293,1024 296,1079 282,1076 490,1066 240,931 228,835 346,1052 357,910 281,768 332,945 293,786 289,822 272,891 439,1079 366,1068 375,993 377,1037 422,1045 307,770 247,1056 367,1031 402,1032 351,1012 410,1066 421,1072 330,864 283,800 362,1023 302,904 388,887 274,975 398,1076 281,928 269,812 249,834 334,952 380,899 305,859 254,1036 249,1033 271,880 544,765 534,830 500,798 526,763 480,830 528,637 578,651 378,670 678,626 898,974 899,1044 853,787 806,944 881,960 750,1073 735,1059 779,1057 810,906 915,1059 895,1012 828,785 889,1048 836,969 851,999 921,1071 875,926 870,836 827,786 918,1077 918,1041 769,814 832,952 784,1062 791,958 808,755 904,994 882,964 787,809 840,836 742,1075 930,989 748,1079 773,1076 910,1010 854,877 908,1035 885,1012 869,807 801,1052 805,1043 906,1040 852,1003 880,1017 772,903 801,1072 810,1001 797,1009 798,846 796,925 776,736 848,952 766,898 896,946 850,823 855,809 793,947 767,871 821,850 782,1022 795,1014 778,766 800,941 803,980 794,816 778,900 809,778 799,1076 900,1045 919,1067 823,1044 803,1078 1020,1062 555,1074 925,1041 806,926 810,1024 722,1057 878,1045 783,922 744,921 870,1041 777,888 775,1040 731,1066 854,1013 810,958 821,1057 761,1005 858,973 779,773 851,799 856,834 856,836 868,923 851,820 753,940 814,895 789,780 799,816 769,767 866,861 728,873 763,284 570,186 504,88 575,45 562,97 563,48 504,57 340,186 284,264 341,190 680,104 679,72 598,26 592,21 570,52 714,171 860,400 829,445 772,610 776,494 739,630 797,267 784,315 706,337 694,305 631,220 747,372 732,286 749,417 808,426 767,403 638,160 643,250 707,302 703,276 613,220 748,339 615,202 635,32 491,40 575,49 679,324 600,133 790,199 782,247 822,194 540,152 690,104 853,375 795,590 716,118 687,106 413,211 400,234 516,29 393,126 353,216 309,374 277,370 257,380 527,93 387,240 223,356 283,196 370,111 398,274 223,453 313,385 494,55 513,33 303,164 284,438 330,308 611,17 238,383 576,389 807,215 812,181 799,281 806,285 729,173 204,230 693,185 404,207 524,59 654,105 713,100 606,104 688,85 687,88 749,150 693,126 699,71 547,87 610,210 522,181 585,202 661,277 722,383 629,244 696,315 543,141 651,271 662,292 849,363 836,330 867,465 829,404 794,431 800,439 811,432 821,438 737,220 690,238 316,91 311,444 358,587 468,392 405,503 565,856 392,664 623,643 495,654 701,627 464,650 587,888 522,848 562,764 489,805 572,767 486,839 556,766 549,784 570,771 515,774 572,836 455,759 537,858 579,912 476,649 451,692 644,679 535,693 463,719 395,855 384,823 532,622 433,742 585,628 573,665 304,780 256,808 424,738 287,1053 369,830 292,767 250,893 280,791 312,765 290,798 380,1051 307,743 377,1077 392,1065 361,1060 213,1079 232,1055 269,1065 372,1057 227,1034 244,814 340,742 290,809 347,722 249,938 255,970 232,912 254,981 221,899 254,944 250,1012 258,944 393,901 225,1050 308,1032 238,973 354,1078 399,1077 291,1052 393,1037 393,1047 177,1069 537,1079 121,1066 361,1045 415,1067 393,1025 307,916 576,749 395,861 368,813 355,1036 281,1052 434,1028 316,1059 404,1062 330,900 376,1010 341,865 340,850 352,974 313,744 607,773 624,750 444,867 243,1047 280,1039 272,874 277,1012 545,768 620,754 548,794 437,718 439,733 507,754 483,766 295,573 605,888 458,727 613,672 481,544 411,377 491,558 440,380 397,480 399,441 395,420 234,400 311,534 315,550 243,453 325,450 719,353 813,483 772,432 801,415 743,391 627,154 845,392 523,42 588,125 556,124 467,34 798,290 814,254 773,211 784,218 759,203 680,119 639,47 579,78 451,205 541,147 591,122 702,115 859,367 839,367 730,657 864,1068 921,1078 847,1072 808,1076 840,1065 849,955 802,757 882,1009 811,1003 799,1013 911,1060 811,1019 911,1076 827,939 874,1019 790,1065 704,1068 863,995 857,1072 849,940 821,922 804,1071 822,993 824,802 868,874 783,902 860,985 820,1005 859,1024 840,955 931,1045 784,1070 712,1064 836,1074 811,859 855,1010 813,999 771,1003 960,1012 776,1032 779,1028 863,1042 812,850 740,694 770,375 632,13 605,89 458,106 528,127 444,138 464,93 478,145 533,71 302,373 297,325 513,451 423,358 507,440 387,491 483,459 469,481 300,512 263,438 279,509 440,86 432,124 313,197 235,314 368,641 400,669 301,589 333,606 358,614 279,544 297,555 361,370 516,435 340,609 365,570 274,594 599,573 487,562 521,756 440,810 445,772 450,815 610,762 249,797 248,981 269,994 221,831 309,791 472,772 451,778 500,751 531,887 551,878 499,846 525,879 454,758 449,873 447,925 425,756 410,772 597,927 379,734 389,810 395,779 485,788 397,737 542,626 556,689 602,624 444,709 449,703 677,679 274,416 401,163 370,209 412,156 238,281 361,120 416,169 400,195 736,104 866,466 777,181 853,429 757,589 776,503 803,293 812,577 800,561 801,349 661,313 710,295 840,433 779,485 800,374 773,610 791,524 839,276 686,67 695,96 783,595 716,712 797,453 722,694 792,446 791,437 782,651 229,1014 249,1014 249,1019 225,1079 401,1076 106,1077 574,1074 936,1015 727,913 803,940 826,981 815,970 771,931 925,1066 873,881 914,1037 927,1079 518,1077 282,379 282,185 280,410 370,662 598,650 502,669 585,698 480,614 499,658 450,679 569,689 592,657 248,949 384,959 257,1067 257,1028 385,1007 407,1064 260,1065 261,993 403,1060 451,1074 261,1023 269,1014 376,959 411,852 382,915 590,862 529,769 569,746 465,801 452,820 546,747 539,766 583,896 568,883 496,839 295,836 218,795 537,906 484,560 328,303 324,243 266,282 260,478 262,351 292,514 221,418 309,516 370,258 417,660 266,439 226,355 272,410 420,72 273,241 427,389 543,391 629,410 572,398 761,414 668,313 642,284 636,200 598,104 556,90 360,82 319,213 399,52 378,339 245,277 304,236 372,87 504,85 504,30 417,172 341,147 374,76 344,369 471,116 249,364 260,339 337,188 345,103 337,478 312,376 519,399 821,309 868,470 837,285 639,88 917,400 541,24 690,101 277,172 717,106 682,50 772,218 812,192 795,199 535,6 621,75 604,71 600,26 372,162 470,153 417,232 479,182 616,169 476,152 290,183 246,370 282,208 589,734 383,435 514,471 258,409 519,472 235,284 523,171 698,205 657,83 612,61 726,172 741,253 642,182 477,172 606,73 729,109 679,64 613,14 605,104 618,59 569,13 687,131 676,27 642,116 684,88 710,88 666,124 772,201 489,178 415,221 671,107 537,112 699,107 354,233 558,173 467,163 501,168 559,183 614,22 624,41 694,104 859,301 708,698 833,530 513,0 871,487 767,307 705,320 709,381 642,155 461,142 334,325 475,427 509,433 361,339 361,261 343,474 846,813 798,809 862,939 766,996 855,912 843,914 815,1062 871,1030 818,775 758,1075 791,773 767,760 884,816 749,925 870,837 895,1001 837,978 758,1039 843,906 845,904 840,969 828,1068 851,1001 864,839 775,774 872,840 841,793 865,840 831,910 866,1034 727,1072 804,1064 864,1065 815,1059 866,819 776,772 881,829 689,709 329,915 399,814 338,822 335,838 377,909 243,802 303,796 313,791 230,848 317,962 272,894 297,1055 275,1078 890,1079 324,1078 470,1075 232,970 342,797 374,739 336,775 212,1052 256,1024 411,971 252,1064 205,1077 495,1040 210,1078 441,1060 302,1053 324,963 495,784 581,901 411,701 290,876 227,809 344,745 607,937 440,827 464,837 587,922 501,867 601,916 522,805 532,843 570,894 467,867 263,797 276,1021 207,1028 249,1042 316,813 374,986 229,822 235,939 363,1067 284,934 274,942 258,791 340,773 402,795 399,875 356,887 415,830 327,776 322,874 305,854 243,903 311,903 257,853 222,960 303,1001 322,1043 316,777 571,670 417,433 504,397 425,445 480,541 504,449 333,619 466,501 354,607 345,608 356,607 264,622 748,324 610,194 825,397 806,313 870,490 806,206 780,386 810,226 820,286 462,139 454,137 489,97 868,430 841,510 870,410 370,440 432,429 313,473 346,353 484,406 519,610 515,556 272,994 255,812 223,812 449,694 657,687 388,717 385,866 473,776 294,924 353,1051 351,976 359,997 285,1008 375,977 396,1017 227,1006 278,1000 318,959 395,1045 300,894 565,658 549,645 434,654 619,534 678,231 793,419 616,258 821,492 764,444 738,304 470,59 381,174 366,196 412,171 349,381 444,44 336,115 296,320 267,281 235,327 249,360 358,99 546,42 443,108 348,429 360,393 410,486 367,283 368,402 347,385 342,434 338,514 220,436 283,428 223,281 290,591 239,339 262,406 343,141 523,48 392,213 559,0 712,143 635,141 678,455 578,453 646,380 608,432 636,502 623,439 601,419 526,386 430,419 222,476 484,761 450,742 296,585 371,663 320,573 407,638 751,641 805,538 798,217 746,269 763,305 625,162 666,211 757,274 840,252 667,343 594,459 623,389 692,400 391,399 253,395 346,265 352,239 371,76 772,173 814,214 813,561 723,685 769,644 772,548 845,438 837,400 572,428 670,394 574,415 658,376 590,496 619,337 331,574 407,594 396,563 459,403 732,419 490,443 420,511 418,495 489,455 304,601 334,590 295,660 391,479 355,484 397,439 393,426 738,395 474,420 448,488 338,535 616,383 306,611 418,567 333,621 330,212 407,134 376,114 429,616 298,587 603,690 512,695 507,473 382,462 434,443 405,414 427,397 672,452 561,412 655,397 637,425 587,407" fill="none" stroke="black" stroke-width="1.25"/>
</svg>
  