<svg viewBox="0 0 1080 1080" xmlns="http://www.w3.org/2000/svg">
  <polyline points="540,540 246,1073 325,570 272,625 355,847 246,562 307,287 263,778 392,759 296,633 274,764 274,385 754,309 781,870 848,266 669,591 793,674 686,258 897,1008 793,879 862,558 557,70 557,118 547,82 443,63 797,205 780,838 749,366 828,965 744,971 888,652 781,901 798,586 776,532 746,789 795,756 824,799 776,569 811,754 757,995 842,1076 745,632 753,287 748,487 792,821 778,1004 791,728 876,672 874,1067 802,688 910,853 697,544 845,116 720,852 837,357 791,756 775,447 778,475 761,878 797,578 718,620 820,186 554,16 638,166 472,98 866,420 746,592 864,871 784,936 874,533 806,801 756,772 732,520 717,422 622,14 876,831 738,164 501,149 849,351 626,32 644,175 433,107 653,190 680,193 753,236 753,59 737,816 697,630 824,856 800,223 850,511 804,417 625,113 704,132 555,78 802,260 810,916 902,905 929,880 584,88 586,149 756,333 616,156 740,261 721,245 691,70 532,77 703,152 388,112 572,140 881,475 832,952 718,539 764,401 673,175 746,303 494,88 751,162 462,90 610,143 829,353 866,970 655,57 648,84 776,323 782,353 638,184 755,444 855,539 731,322 687,83 628,175 637,166 667,212 709,244 711,812 741,321 681,94 608,128 602,56 741,256 761,230 743,206 777,326 760,144 726,678 908,811 739,792 832,386 787,453 933,953 860,711 825,727 643,186 713,403 598,4 851,438 546,24 618,78 737,197 492,129 357,142 462,58 376,131 391,66 291,712 310,244 309,907 208,1036 303,697 365,680 254,982 236,811 411,814 197,621 281,845 208,733 325,622 542,873 212,886 469,550 781,99 374,137 568,135 653,28 760,119 632,125 463,90 843,160 871,879 880,1037 709,523 731,848 789,316 646,43 750,360 830,617 786,552 861,642 787,855 803,1018 755,318 835,318 456,89 275,262 297,967 308,611 360,784 144,1061 399,662 219,912 358,1012 277,769 316,81 330,846 338,1053 335,926 282,1078 284,715 206,1020 283,496 163,948 345,937 177,1003 378,327 287,526 291,964 145,1029 285,975 214,963 302,1062 275,856 197,936 367,836 243,637 485,819 357,669 277,389 308,854 296,961 284,336 311,781 309,988 294,291 266,515 268,1002 204,1062 230,901 199,1067 244,837 320,964 323,9 908,299 864,864 865,496 813,971 905,365 436,15 253,527 289,837 408,715 154,637 360,993 313,502 459,1008 305,619 315,194 380,902 97,810 347,722 327,615 155,958 347,1039 161,545 847,1010 847,1067 856,1031 839,768 699,778 738,123 714,541 717,280 586,58 857,271 406,83 388,185 441,20 764,97 816,271 854,833 897,491 676,113 799,156 779,229 754,179 856,340 842,580 588,717 848,627 935,834 882,937 805,985 829,498 756,733 778,834 733,653 842,996 906,882 942,889 853,662 929,915 776,406 757,344 778,204 715,467 772,432 754,460 757,1078 759,981 915,1002 852,566 565,45 446,46 790,195 469,41 574,59 727,136 362,141 497,48 562,54 511,21 544,73 925,703 913,886 769,341 698,45 764,187 688,240 872,407 849,374 836,468 815,705 873,402 807,857 677,636 928,935 750,902 795,1049 915,889 782,776 908,789 820,805 777,618 904,931 817,803 886,1067 704,1060 948,931 773,548 770,261 512,27 672,71 735,202 538,108 612,179 802,265 763,582 680,264 555,80 378,75 737,79 482,59 605,55 810,399 782,509 694,628 854,980 918,783 862,669 779,1076 799,807 813,539 950,862 633,795 861,517 929,709 818,882 751,836 718,106 466,58 745,118 664,254 881,497 766,761 678,53 708,460 846,766 744,1000 790,348 802,634 788,142 800,651 901,917 759,951 765,684 818,500 670,665 706,596 815,416 763,143 925,853 831,859 919,926 671,196 780,950 816,879 940,866 853,861 850,970 729,617 868,1050 780,941 902,932 905,684 893,1066 843,1061 910,769 796,177 575,41 988,1004 637,166 439,109 500,168 733,181 871,932 869,890 921,942 704,684 811,1006 870,226 781,964 808,1039 772,887 726,715 722,745 683,600 770,820 710,944 713,517 753,331 860,881 662,786 941,779 729,54 774,657 752,837 915,944 804,1031 746,990 802,950 725,713 767,300 636,111 333,128 573,94 840,350 568,91 818,127 597,18 883,413 732,111 677,50 650,119 388,64 543,148 181,974 297,948 265,455 260,953 194,909 263,917 167,1037 280,877 347,625 325,936 302,160 594,147 727,69 714,74 595,53 753,143 792,309 777,777 649,629 866,446 846,612 866,504 909,759 854,1036 703,678 745,930 759,308 737,414 693,734 741,785 857,1061 760,199 447,134 516,127 690,34 483,50 561,98 549,26 258,248 462,110 592,79 798,262 833,281 829,422 754,520 856,996 891,592 807,934 759,220 770,535 681,676 794,821 802,959 719,782 921,990 771,990 889,905 815,732 764,838 797,243 781,640 840,606 774,979 725,603 886,887 880,493 839,340 912,602 819,265 811,201 889,662 786,150 556,31 640,55 853,312 836,1078 658,1008 737,69 439,94 655,58 571,23 550,32 558,116 291,166 577,71 405,118 613,32 751,394 664,167 404,95 440,101 464,176 895,175 689,697 712,354 691,669 843,984 806,979 943,872 887,945 889,757 693,648 833,562 685,231 865,595 729,805 735,779 709,624 840,561 825,180 961,939 676,112 646,159 699,210 654,319 817,217 731,85 832,284 849,478 818,532 873,437 900,652 840,942 747,326 671,336 871,623 807,572 623,32 695,56 294,225 416,40 606,72 814,207 817,568 639,675 760,611 708,446 702,279 744,389 695,1027 844,253 694,112 419,73 465,66 217,995 367,822 398,705 325,965 206,1038 283,448 212,773 256,715 213,734 262,847 270,1029 290,960 256,919 316,986 331,1003 276,473 412,778 207,982 239,699 255,892 235,785 515,771 149,765 404,631 329,709 438,785 238,434 458,886 258,599 290,954 274,1001 198,950 284,1045 294,789 352,613 229,625 409,784 350,735 308,1043 219,990 358,1022 188,662 366,1072 280,786 238,674 285,923 314,783 168,1065 253,498 208,932 225,933 404,691 357,656 931,864 940,850 851,539 819,579 907,534 755,113 806,444 934,915 703,525 883,830 905,1002 876,971 835,1054 831,1069 878,1011 929,819 886,748 858,515 673,142 484,121 884,310 344,69 253,594 421,748 343,694 382,663 126,972 234,1027 410,612 360,922 153,916 452,769 357,724 393,590 227,1049 273,798 300,609 292,304 270,1050 272,1058 144,1023 300,675 259,1040 178,983 135,1073 281,986 389,716 174,992 229,885 308,1051 205,889 882,506 800,780 654,214 694,81 638,89 846,431 930,698 721,285 934,965 766,233 915,823 852,782 838,1005 848,1066 881,926 683,48 809,204 843,240 824,297 773,137 769,194 772,390 890,441 644,184 448,52 659,154 748,626 754,321 873,667 851,541 777,360 523,25 821,454 801,192 754,92 700,912 752,55 345,186 372,131 762,189 842,623 645,102 816,918 886,782 678,1079 968,817 697,836 727,199 767,210 843,236 811,297 748,440 700,440 740,150 795,222 843,604 843,477 888,944 749,977 817,635 659,266 752,513 782,1079 812,915 701,1038 768,250 824,428 714,554 899,1001 855,1037 819,272 448,35 330,153 361,161 491,87 470,177 452,92 933,341 544,119 498,62 583,75 510,108 910,301 839,1063 808,942 721,1037 816,1048 949,741 709,532 745,852 806,225 810,179 617,114 898,964 771,825 812,853 686,488 837,824 950,933 832,1047 733,259 812,387 699,885 924,974 665,655 778,677 912,743 687,763 829,623 688,277 951,883 837,727 948,837 921,663 202,786 251,837 293,428 224,962 181,1047 379,470 187,882 320,668 305,693 343,797 259,506 218,806 354,1045 272,1048 297,710 320,445 309,350 249,973 198,779 336,217 316,288 325,621 175,782 446,802 251,513 261,534 456,905 269,351 315,325 284,1049 349,771 203,844 308,535 287,279 192,1016 331,165 863,109 451,50 351,126 302,363 237,577 368,153 699,140 377,160 703,135 816,428 935,888 875,541 917,645 866,622 576,147 552,130 373,94 431,130 711,18 413,75 211,898 289,220 404,169 232,520 454,673 367,792 191,1061 142,1038 189,940 260,685 309,839 119,1018 500,689 884,647 721,1011 850,954 697,1075 869,753 669,673 831,697 906,717 871,714 920,824 812,157 410,43 305,296 249,833 319,1028 193,795 449,743 360,14 193,873 251,973 318,288 289,396 351,788 345,715 167,982 333,262 312,945 222,693 240,1023 239,927 243,825 235,642 282,578 420,740 226,847 291,337 299,786 357,329 199,872 312,1072 259,858 385,800 269,399 332,738 360,611 418,709 424,711 233,795 284,809 351,611 383,644 306,792 358,827 319,706 301,1079 317,160 309,882 244,960 234,1068 385,899 215,574 515,752 246,662 334,653 340,791 188,824 446,707 223,556 380,913 289,343 273,654 330,868 258,998 203,1012 326,961 239,1039 240,893 251,739 204,771 314,356 325,343 206,872 351,1028 85,1062 439,1065 161,929 355,669 157,972 272,850 270,675 171,789 375,749 428,729 902,772 878,768 794,1036 964,933 691,40 526,13 450,130 646,67 857,1033 862,721 626,687 836,690 734,1036 880,635 845,497 772,815 821,488 767,87 665,176 746,137 706,766 808,1047 805,1031 815,963 753,906 811,899 838,1054 732,1046 883,939 736,1069 915,625 866,1014 920,874 809,968 712,762 817,1063 780,1077 936,999 647,20 696,132 601,10 391,229 370,575 340,787 167,970 432,797 401,722 356,731 330,791 902,614 735,196 789,1054 891,738 867,1001 749,768 783,1015 899,856 716,1059 972,944 690,717 678,754 731,618 749,458 735,430 711,310 728,403 689,194 431,40 315,232 380,133 224,800 163,1049 309,1021 356,755 189,712 397,876 344,597 328,1020 292,707 167,986 284,535 330,399 301,950 265,830 384,705 457,665 250,858 333,843 413,656 143,935 472,705 860,1044 700,469 849,932 797,886 777,627 704,464 776,822 691,578 768,647 705,290 686,248 659,318 701,154 661,18 856,272 808,637 877,920 678,694 913,1046 864,814 784,356 738,201 555,50 598,203 549,126 749,142 789,271 907,571 228,854 328,452 193,765 219,702 306,834 515,873 166,590 887,1065 925,659 710,111 453,72 625,156 748,798 716,776 826,1010 702,1034 727,1047 846,1070 934,1027 745,1028 815,437 787,556 859,1063 694,1057 977,723 335,648 271,822 319,1008 274,898 207,1052 293,1077 412,700 328,646 312,450 338,850 189,1078 241,946 422,674 352,653 336,624 293,1063 408,379 396,892 261,521 305,228 214,721 430,886 272,356 294,278 706,40 521,97 786,435 666,155 775,148 750,186 412,78 440,135 347,194 235,664 263,787 194,1007 256,563 515,766 286,752 399,669 455,855 781,561 651,674 701,786 737,786 842,1075 872,370 856,353 790,587 940,761 934,856 821,198 693,138 723,220 720,78 602,12 522,44 478,218 791,89 431,122 702,159 728,814 753,887 694,686 963,928 744,98 742,81 627,168 766,119 364,143 506,184 887,370 882,843 750,675 917,715 470,15 244,631 195,953 347,936 259,468 316,519 329,1078 311,864 365,749 240,931 289,970 356,712 445,749 273,631 423,753 460,732 348,774 231,1069 256,800 216,897 152,984 386,732 254,483 248,542 445,875 304,546 298,1022 300,942 341,656 317,783 332,760 167,917 377,1014 103,1078 407,729 350,583 338,1071 267,1017 395,78 445,92 452,60 565,76 650,47 575,13 429,131 305,259 356,780 379,782 151,1019 276,1038 218,1030 167,1028 406,653 985,766 554,713 745,760 639,631 855,806 953,856 744,459 793,1005 914,607 882,998 782,1009 807,909 802,911 704,1037 915,822 902,829 861,395 914,851 826,821 790,558 768,1030 753,949 690,563 665,831 740,482 697,529 829,1034 883,768 905,969 924,786 776,232 898,460 722,447 638,194 585,11 860,733 851,606 589,78 393,154 596,4 482,88 576,4 611,147 887,663 739,1066 938,898 810,684 785,857 817,1035 897,1029 790,906 745,1078 778,144 402,56 595,21 384,87 500,142 648,91 487,24 723,68 851,384 904,484 855,398 833,455 799,790 805,1041 796,1038 906,989 730,1011 901,739 640,138 707,400 797,352 781,994 940,949 905,563 756,125 824,347 939,762 733,115 409,124 423,88 578,1 736,225 552,20 415,53 310,278 294,1026 373,1014 94,937 317,566 223,639 197,859 347,840 305,1071 148,913 601,733 933,745 704,493 712,580 696,526 785,503 815,720 884,408 843,550 766,914 612,910 842,120 745,885 713,383 771,202 403,53 391,227 257,886 329,974 224,728 354,76 661,175 769,832 706,558 687,263 616,72 743,108 432,26 704,75 692,813 725,139 721,63 421,32 178,1055 305,708 237,979 141,1077 238,827 206,1021 526,588 255,893 320,137 831,226 627,160 848,335 363,61 526,121 433,151 341,151 278,444 349,634 438,809 291,563 316,173 190,985 316,969 229,910 241,521 246,971 143,1069 208,865 296,1052 232,972 262,1025 147,984 319,1004 338,436 398,284 212,716 345,187 555,24 508,96 354,73 244,710 290,669 312,179 483,127 290,194 217,1028 339,1053 292,473 435,765 976,623 188,699 807,804 881,883 810,392 845,267 863,1074 885,946 861,978 852,910 722,990 785,1030 933,877 694,405 894,960 875,811 765,533 782,142 553,77 810,496 783,314 904,448 547,382 941,200 591,958 889,530 918,599 838,721 876,593 851,678 823,704 928,947 824,830 777,685 911,610 881,378 739,530 680,251 816,867 876,307 723,545 757,176 447,102 780,185 421,169 136,1076 289,535 174,817 272,732 186,806 829,687 794,675 773,409 655,27 601,56 566,166 864,662 737,985 840,1007 766,978 665,722 690,777 792,362 511,53 446,202 485,143 720,178 770,133 695,920 775,382 790,193 744,834 735,292 676,51 857,315 657,17 390,59 354,155 452,95 588,97 282,242 652,97 905,578 852,242 644,56 736,86 637,15 673,112 681,23 758,176 763,190 686,154 383,94 424,62 531,209 726,140 756,170 745,204 847,282 709,118 711,202 701,384 744,886 902,1065 663,1032 967,767 630,679 684,671 802,949 801,259 598,25 562,113 358,185 508,85 691,278 764,206 673,46 582,46 303,213 182,1030 209,819 546,773 886,385 733,700 761,175 718,70 765,112 665,168 656,301 301,418 378,832 187,1067 369,801 270,1000 290,568 180,866 201,966 204,978 168,1060 284,913 190,1010 269,676 395,589 238,845 338,312 453,621 306,946 1020,383 375,831 324,563 258,562 186,792 279,683 349,1064 332,793 301,495 339,116 553,140 917,833 672,921 869,867 710,1015 905,1041 840,753 588,3 532,74 600,22 742,280 849,286 502,133 342,205 392,481 366,90 701,151 400,90 715,120 420,164 499,185 485,64 835,217 363,127 224,653 228,965 212,1002 246,974 419,632 572,614 162,645 779,598 166,980 327,407 215,659 366,740 141,991 337,908 289,972 219,901 433,53 263,363 918,291 482,399 803,337 853,824 714,1052 893,916 715,760 715,891 828,963 919,998 651,262 786,475 879,1054 707,1027 865,1001 899,515 859,483 900,416 756,1079 686,907 907,797 930,656 872,982 940,780 864,416 820,496 752,206 523,345 857,208 898,1044 723,713 804,1065 754,898 778,1024 845,1068 799,976 729,893 828,1032 718,1064 886,1021 657,668 756,811 816,1058 859,642 841,279 745,407 659,800 793,120 579,30 368,193 657,76 734,77 697,393 756,937 734,637 373,816 243,566 290,1047 244,489 394,700 481,799 125,691 1022,859 656,734 747,429 584,296 323,419 279,720 167,949 233,843 210,947 324,858 332,903 333,963 222,1019 186,896 381,650 467,836 516,906 176,776 258,1048 316,992 158,1067 192,915 259,1060 290,694 249,741 262,981 332,1056 100,1054 393,666 324,565 408,859 196,1060 358,716 351,685 220,1011 342,581 338,686 439,889 395,713 275,374 348,141 194,1056 267,1037 342,478 237,1054 303,1008 313,939 312,614 337,677 252,931 285,974 254,917 474,773 217,451 500,785 163,1056 176,989 366,566 144,1034 203,931 477,706 355,811 191,1036 279,844 290,825 528,767 333,677 892,859 673,625 739,805 757,455 626,92 850,276 855,290 842,372 902,976 905,726 751,79 818,223 902,979 934,866 947,813 891,613 653,4 952,918 564,56 310,204 423,39 468,94 398,148 724,68 758,133 460,37 599,72 387,181 704,24 894,1020 851,891 774,1051 758,962 822,996 690,427 787,158 909,604 670,204 836,351 806,361 869,412 659,191 882,1074 840,980 630,1060 872,1036 636,1031 936,929 738,210 806,170 917,534 834,953 948,784 825,205 403,145 166,1065 197,947 313,687 296,356 316,431 303,436 351,672 419,811 429,405 272,331 841,425 512,367 806,215 880,362 940,899 780,744 919,1025 782,583 593,118 546,70 369,120 541,182 784,272 948,782 808,246 842,390 552,20 574,22 561,148 691,87 643,48 816,261 903,1039 853,912 598,79 419,42 802,244 667,187 753,443 730,931 365,853 506,567 136,813 556,626 218,1036 321,978 141,1046 491,989 428,700 283,798 388,741 233,717 319,193 473,6 454,171 619,74 471,149 700,56 433,96 446,214 217,908 296,1056 385,879 286,189 591,77 526,201 769,97 834,429 855,224 318,146 325,1050 234,809 287,1021 299,932 167,1063 287,380 414,400 285,655 298,615 404,625 510,630 429,590 419,728 387,703 417,611 334,791 272,1029 124,1036 370,1059 143,797 343,1028 363,91 357,170 179,814 414,136 669,89 621,78 665,67 711,666 780,1017 671,445 742,127 797,140 753,402 775,474 777,289 796,201 396,416 338,950 326,349 309,967 109,1014 849,605 926,782 598,668 895,776 909,905 937,859 571,67 616,89 779,727 831,1023 799,366 816,518 564,748 742,630 928,731 714,1058 718,1062 905,447 860,670 741,823 719,796 830,877 813,865 796,747 873,358 769,899 790,271 494,128 691,111 459,47 409,74 322,177 467,67 578,178 639,260 909,492 768,192 601,25 821,131 502,368 550,423 830,65 274,190 767,132 483,162 833,85 939,930 775,921 775,114 875,360 813,261 681,34 608,62 673,125 384,60 254,494 454,39 296,264 261,934 299,1055 348,1014 317,893 340,979 261,576 229,739 256,1051 137,1058 395,630 705,608 728,155 725,103 696,314 752,208 400,40 617,126 531,73 486,82 478,122 432,149 511,117 722,288 872,1068 656,1003 793,1068 852,1023 940,913 942,849 851,1066 793,907 790,952 635,614 194,654 883,921 859,266 706,93 687,47 339,219 247,629 511,820 335,791 441,776 233,908 149,1052 879,1067 79,1075 639,1018 761,327 627,136 332,121 272,590 476,592 396,837 405,847 313,882 118,1073 389,840 412,545 202,1065 402,610 435,738 300,562 156,1075 401,970 283,286 322,842 468,800 318,541 439,880 350,599 196,775 318,1034 222,1022 149,1035 519,1020 889,1035 712,500 775,651 850,492 140,1067 169,974 140,1074 246,916 417,593 828,780 850,877 828,372 764,947 670,705 767,930 891,889 637,715 847,562 792,1033 887,1001 608,640 719,769 695,784 798,867 585,656 264,604 882,621 875,386 766,508 881,838 415,595 407,983 412,52 320,247 449,520 313,1051 354,968 291,761 343,1076 91,1035 691,641 253,901 711,624 698,619 866,812 902,974 763,734 884,956 899,963 770,817 760,1024 792,1048 713,998 974,894 239,570 327,132 668,18 900,519 864,1076 639,1055 889,938 684,1038 757,472 737,879 820,214 825,1018 781,1021 786,939 879,638 810,989 941,871 922,920 859,449 659,43 716,606 890,566 788,119 740,268 865,562 906,780 696,283 709,451 667,732 804,533 873,1001 889,1013 685,1049 940,784 676,203 490,456 640,4 470,34 949,583 126,990 290,1028 620,18 392,76 486,32 762,175 658,761 723,450 823,286 401,75 658,179 645,326 886,471 677,200 772,1068 865,1050 810,291 290,381 429,876 335,683 603,872 765,567 704,265 321,122 640,166 905,966 653,657 734,564 715,600 742,58 725,446 707,518 767,167 572,172 582,134 735,302 851,528 632,6 371,97 345,181 294,327 384,61 806,278 851,359 760,380 797,473 900,517 811,399 720,60 919,604 702,332 760,363 815,460 836,472 597,220 845,638 428,808 439,623 256,601 230,960 327,1042 371,1043 283,420 545,330 276,437 766,240 654,799 890,1069 917,635 868,383 595,9 842,416 830,629 651,806 822,836 757,1045 895,956 283,835 876,557 515,57 351,150 230,1013 227,958 207,1017 299,718 220,972 772,50 471,35 642,125 725,278 660,55 808,183 320,456 198,736 216,899 858,564 950,884 846,995 809,1006 888,985 691,1015 1002,965 524,877 307,509 373,657 882,545 588,8 743,540 800,1062 748,1040 748,1025 935,769 685,1065 985,854 253,570 409,29 540,138 591,233 949,930 551,731 903,834 905,964 930,903 943,775 871,541 823,902 777,866 606,11 763,148 753,173 779,968 855,859 198,665 331,1023 228,1034 831,1074 827,287 783,179 817,319 948,972 903,503 931,846 780,1062 876,1076 641,513 177,1008 175,1057 315,998 294,213 246,817 336,1036 158,1070 354,1030 169,1054 243,1048 350,990 220,891 253,547 449,830 418,732 211,757 321,130 612,121 358,175 347,150 631,29 302,210 292,1066 320,1052 135,1000 433,970 341,152 484,43 612,9 691,137 732,142 472,18 261,328 409,486 242,1074 276,812 247,747 451,868 399,612 258,756 258,728 370,577 611,650 807,972 844,638 879,381 953,848 772,971 802,1028 724,1063 293,566 493,799 901,1058 675,1022 805,470 687,921 700,238 499,86 610,103 422,178 362,114 602,17 465,152 150,1042 680,645 661,625 716,922 739,318 523,432 803,349 845,578 859,447 609,706 734,571 731,1058 873,1054 902,996 415,570 144,1049 371,813 427,715 344,893 254,747 466,665 509,668 273,648 506,769 225,783 479,898 409,811 489,607 551,660 399,544 443,612 500,644 373,590 299,810 169,928 518,555 725,73 786,122 532,40 794,438 567,305 561,354 867,610 557,734 192,1008 116,1030 546,603 537,628 253,633 194,737 263,978 175,922 373,1058 30,903 975,618 678,1066 884,847 200,518 708,218 886,776 674,610 760,246 439,36 474,167 429,90 542,122 570,17 548,154 341,133 492,66 589,21 284,284 679,753 820,965 765,933 150,799 389,1059 35,1070 913,489 804,252 687,608 730,678 706,443 710,1001 696,52 721,166 364,78 269,432 424,888 458,630 439,665 370,319 374,444 374,147 477,31 429,215 595,97 482,113 458,163 687,18 840,495 886,1035 891,844 798,1060 738,1009 739,573 915,922 901,905 685,28 324,192 419,102 497,55 490,168 103,928 473,542 206,748 165,1042 308,979 336,1049 386,617 521,672 924,991 693,891 707,423 494,376 664,360 661,93 645,62 357,138 314,906 595,237 293,915 366,1039 150,1026 358,792 561,585 319,942 346,523 432,347 383,379 277,419 241,536 329,1051 352,739 420,679 214,889 322,1034 366,1007 177,1052 276,997 218,1037 220,941 257,817 243,1027 308,459 274,609 346,991 272,942 443,568 192,1031 299,1075 935,1069 233,1077 344,997 261,336 448,440 331,310 463,446 277,259 302,703 274,700 571,956 206,674 245,1046 368,1077 280,1026 110,1011 489,1049 417,390 259,516 322,352 295,687 156,1046 257,596 778,978 649,628 335,615 955,852 681,1074 822,909 654,770 408,735 670,36 644,85 796,141 626,37 511,13 651,119 803,199 787,1044 907,926 881,1078 836,989 862,1003 633,641 892,1055 850,849 783,643 897,666 923,814 902,988 721,987 710,491 757,603 766,480 619,312 452,337 132,1036 236,996 315,327 401,53 695,99 734,240 388,98 278,271 719,8 392,68 688,72 767,345 727,196 493,161" fill="none" stroke="black" stroke-width="1.5"/>
</svg>
  